<mxfile host="Electron" modified="2024-03-02T20:32:39.603Z" agent="Mozilla/5.0 (X11; Linux x86_64) AppleWebKit/537.36 (KHTML, like Gecko) draw.io/23.1.5 Chrome/120.0.6099.109 Electron/28.1.0 Safari/537.36" etag="M8OBFVL2MkyCX7CxH_D3" version="23.1.5" type="device" pages="2">
  <diagram name="Вариант без partition" id="QMocjVOo2yQeZHcsV34e">
    <mxGraphModel dx="2653" dy="1287" grid="0" gridSize="10" guides="1" tooltips="1" connect="1" arrows="1" fold="1" page="0" pageScale="1" pageWidth="850" pageHeight="1100" math="0" shadow="0">
      <root>
        <mxCell id="0" />
        <mxCell id="1" parent="0" />
        <mxCell id="5_eLyJKCKEo9sRuYJwmP-1" value="&lt;div style=&quot;background-color: rgb(247, 247, 247); font-family: monospace, &amp;quot;Droid Sans Mono&amp;quot;, &amp;quot;monospace&amp;quot;, monospace; font-size: 14px; line-height: 19px;&quot;&gt;&lt;div&gt;CREATE TABLE data_mart (&lt;/div&gt;&lt;div&gt;&lt;span style=&quot;color: #a31515;&quot;&gt;&amp;nbsp; &amp;nbsp; timeseries DateTime,&lt;/span&gt;&lt;/div&gt;&lt;div&gt;&amp;nbsp; &amp;nbsp;&lt;span style=&quot;color: rgb(163, 21, 21);&quot;&gt;&amp;nbsp;&lt;/span&gt;&lt;span style=&quot;color: #a31515;&quot;&gt;Date Date,&lt;/span&gt;&lt;/div&gt;&lt;div&gt;&amp;nbsp; &amp;nbsp;&lt;span style=&quot;color: rgb(163, 21, 21);&quot;&gt;&amp;nbsp;&lt;/span&gt;&lt;span style=&quot;color: #a31515;&quot;&gt;City String,&lt;/span&gt;&lt;/div&gt;&lt;div&gt;&amp;nbsp; &amp;nbsp;&lt;span style=&quot;color: rgb(163, 21, 21);&quot;&gt;&amp;nbsp;&lt;/span&gt;&lt;span style=&quot;color: #a31515;&quot;&gt;Client String,&lt;/span&gt;&lt;/div&gt;&lt;div&gt;&amp;nbsp; &amp;nbsp;&lt;span style=&quot;color: rgb(163, 21, 21);&quot;&gt;&amp;nbsp;&lt;/span&gt;&lt;span style=&quot;color: #a31515;&quot;&gt;Product String,&lt;/span&gt;&lt;/div&gt;&lt;div&gt;&amp;nbsp; &amp;nbsp;&lt;span style=&quot;color: rgb(163, 21, 21);&quot;&gt;&amp;nbsp;&lt;/span&gt;&lt;span style=&quot;color: #a31515;&quot;&gt;metric_1 Float64,&lt;/span&gt;&lt;/div&gt;&lt;div&gt;&amp;nbsp; &amp;nbsp;&lt;span style=&quot;color: rgb(163, 21, 21);&quot;&gt;&amp;nbsp;&lt;/span&gt;&lt;span style=&quot;color: #a31515;&quot;&gt;metric_2 Float64,&lt;/span&gt;&lt;/div&gt;&lt;div&gt;&amp;nbsp; &amp;nbsp;&lt;span style=&quot;color: rgb(163, 21, 21);&quot;&gt;&amp;nbsp;&lt;/span&gt;&lt;span style=&quot;color: #a31515;&quot;&gt;metric_3 Float64,&lt;/span&gt;&lt;/div&gt;&lt;div&gt;&amp;nbsp; &amp;nbsp;&lt;span style=&quot;color: rgb(163, 21, 21);&quot;&gt;&amp;nbsp;&lt;/span&gt;&lt;span style=&quot;color: #a31515;&quot;&gt;metric_4 Float64&lt;/span&gt;&lt;/div&gt;&lt;div&gt;&lt;span style=&quot;color: #a31515;&quot;&gt;)&lt;/span&gt;&lt;/div&gt;&lt;div&gt;&lt;span style=&quot;color: #a31515;&quot;&gt;ENGINE = MergeTree&lt;/span&gt;&lt;/div&gt;&lt;div&gt;&lt;span style=&quot;color: #a31515;&quot;&gt;ORDER BY (Date, City, Client, Product)&lt;/span&gt;&lt;/div&gt;&lt;div&gt;&lt;span style=&quot;color: #a31515;&quot;&gt;;&lt;/span&gt;&lt;/div&gt;&lt;/div&gt;" style="text;html=1;align=left;verticalAlign=middle;whiteSpace=wrap;rounded=0;spacingLeft=13;strokeColor=#CCCCCC;" vertex="1" parent="1">
          <mxGeometry x="-175" y="-22" width="350" height="293" as="geometry" />
        </mxCell>
        <mxCell id="5_eLyJKCKEo9sRuYJwmP-3" value="&lt;div style=&quot;font-size: 14px;&quot;&gt;&lt;b style=&quot;&quot;&gt;&lt;font style=&quot;font-size: 14px;&quot;&gt;/var/lib/clickhouse/data/default/data_mart&lt;/font&gt;&lt;/b&gt;&lt;/div&gt;&lt;div style=&quot;font-size: 14px;&quot;&gt;&lt;font style=&quot;font-size: 14px;&quot;&gt;├── all_1_1_0&lt;/font&gt;&lt;/div&gt;&lt;div style=&quot;font-size: 14px;&quot;&gt;&lt;font style=&quot;font-size: 14px;&quot;&gt;│&amp;nbsp; &amp;nbsp; &amp;nbsp;├── City.bin&lt;/font&gt;&lt;/div&gt;&lt;div style=&quot;font-size: 14px;&quot;&gt;&lt;font style=&quot;font-size: 14px;&quot;&gt;│&amp;nbsp; &amp;nbsp; &amp;nbsp;├── City.cmrk2&lt;/font&gt;&lt;/div&gt;&lt;div style=&quot;font-size: 14px;&quot;&gt;&lt;font style=&quot;font-size: 14px;&quot;&gt;│&amp;nbsp; &amp;nbsp; &amp;nbsp;├── Client.bin&lt;/font&gt;&lt;/div&gt;&lt;div style=&quot;font-size: 14px;&quot;&gt;&lt;font style=&quot;font-size: 14px;&quot;&gt;│&amp;nbsp; &amp;nbsp; &amp;nbsp;├── Client.cmrk2&lt;/font&gt;&lt;/div&gt;&lt;div style=&quot;font-size: 14px;&quot;&gt;&lt;font style=&quot;font-size: 14px;&quot;&gt;│&amp;nbsp; &amp;nbsp; &amp;nbsp;├── Date.bin&lt;/font&gt;&lt;/div&gt;&lt;div style=&quot;font-size: 14px;&quot;&gt;&lt;font style=&quot;font-size: 14px;&quot;&gt;│&amp;nbsp; &amp;nbsp; &amp;nbsp;├── Date.cmrk2&lt;/font&gt;&lt;/div&gt;&lt;div style=&quot;font-size: 14px;&quot;&gt;&lt;font style=&quot;font-size: 14px;&quot;&gt;│&amp;nbsp; &amp;nbsp; &amp;nbsp;├── Product.bin&lt;/font&gt;&lt;/div&gt;&lt;div style=&quot;font-size: 14px;&quot;&gt;&lt;font style=&quot;font-size: 14px;&quot;&gt;│&amp;nbsp; &amp;nbsp; &amp;nbsp;├── Product.cmrk2&lt;/font&gt;&lt;/div&gt;&lt;div style=&quot;font-size: 14px;&quot;&gt;&lt;font style=&quot;font-size: 14px;&quot;&gt;│&amp;nbsp; &amp;nbsp; &amp;nbsp;├── checksums.txt&lt;/font&gt;&lt;/div&gt;&lt;div style=&quot;font-size: 14px;&quot;&gt;&lt;font style=&quot;font-size: 14px;&quot;&gt;│&amp;nbsp; &amp;nbsp; &amp;nbsp;├── columns.txt&lt;/font&gt;&lt;/div&gt;&lt;div style=&quot;font-size: 14px;&quot;&gt;&lt;font style=&quot;font-size: 14px;&quot;&gt;│&amp;nbsp; &amp;nbsp; &amp;nbsp;├── count.txt&lt;/font&gt;&lt;/div&gt;&lt;div style=&quot;font-size: 14px;&quot;&gt;&lt;font style=&quot;font-size: 14px;&quot;&gt;│&amp;nbsp; &amp;nbsp; &amp;nbsp;├── default_compression_codec.txt&lt;/font&gt;&lt;/div&gt;&lt;div style=&quot;font-size: 14px;&quot;&gt;&lt;font style=&quot;font-size: 14px;&quot;&gt;│&amp;nbsp; &amp;nbsp; &amp;nbsp;├── metadata_version.txt&lt;/font&gt;&lt;/div&gt;&lt;div style=&quot;font-size: 14px;&quot;&gt;&lt;font style=&quot;font-size: 14px;&quot;&gt;│&amp;nbsp; &amp;nbsp; &amp;nbsp;├── metric_1.bin&lt;/font&gt;&lt;/div&gt;&lt;div style=&quot;font-size: 14px;&quot;&gt;&lt;font style=&quot;font-size: 14px;&quot;&gt;│&amp;nbsp; &amp;nbsp; &amp;nbsp;├── metric_1.cmrk2&lt;/font&gt;&lt;/div&gt;&lt;div style=&quot;font-size: 14px;&quot;&gt;&lt;font style=&quot;font-size: 14px;&quot;&gt;│&amp;nbsp; &amp;nbsp; &amp;nbsp;├── metric_2.bin&lt;/font&gt;&lt;/div&gt;&lt;div style=&quot;font-size: 14px;&quot;&gt;&lt;font style=&quot;font-size: 14px;&quot;&gt;│&amp;nbsp; &amp;nbsp; &amp;nbsp;├── metric_2.cmrk2&lt;/font&gt;&lt;/div&gt;&lt;div style=&quot;font-size: 14px;&quot;&gt;&lt;font style=&quot;font-size: 14px;&quot;&gt;│&amp;nbsp; &amp;nbsp; &amp;nbsp;├── metric_3.bin&lt;/font&gt;&lt;/div&gt;&lt;div style=&quot;font-size: 14px;&quot;&gt;&lt;font style=&quot;font-size: 14px;&quot;&gt;│&amp;nbsp; &amp;nbsp; &amp;nbsp;├── metric_3.cmrk2&lt;/font&gt;&lt;/div&gt;&lt;div style=&quot;font-size: 14px;&quot;&gt;&lt;font style=&quot;font-size: 14px;&quot;&gt;│&amp;nbsp; &amp;nbsp; &amp;nbsp;├── metric_4.bin&lt;/font&gt;&lt;/div&gt;&lt;div style=&quot;font-size: 14px;&quot;&gt;&lt;font style=&quot;font-size: 14px;&quot;&gt;│&amp;nbsp; &amp;nbsp; &amp;nbsp;├── metric_4.cmrk2&lt;/font&gt;&lt;/div&gt;&lt;div style=&quot;font-size: 14px;&quot;&gt;&lt;font style=&quot;font-size: 14px;&quot;&gt;│&amp;nbsp; &amp;nbsp; &amp;nbsp;├── primary.cidx&lt;/font&gt;&lt;/div&gt;&lt;div style=&quot;font-size: 14px;&quot;&gt;&lt;font style=&quot;font-size: 14px;&quot;&gt;│&amp;nbsp; &amp;nbsp; &amp;nbsp;├── serialization.json&lt;/font&gt;&lt;/div&gt;&lt;div style=&quot;font-size: 14px;&quot;&gt;&lt;font style=&quot;font-size: 14px;&quot;&gt;│&amp;nbsp; &amp;nbsp; &amp;nbsp;├── timeseries.bin&lt;/font&gt;&lt;/div&gt;&lt;div style=&quot;font-size: 14px;&quot;&gt;&lt;font style=&quot;font-size: 14px;&quot;&gt;│&amp;nbsp; &amp;nbsp; &amp;nbsp;└── timeseries.cmrk2&lt;/font&gt;&lt;/div&gt;&lt;div style=&quot;font-size: 14px;&quot;&gt;&lt;font style=&quot;font-size: 14px;&quot;&gt;├── detached&lt;/font&gt;&lt;/div&gt;&lt;div style=&quot;font-size: 14px;&quot;&gt;&lt;font style=&quot;font-size: 14px;&quot;&gt;└── format_version.txt&lt;/font&gt;&lt;/div&gt;" style="text;html=1;align=left;verticalAlign=middle;whiteSpace=wrap;rounded=0;" vertex="1" parent="1">
          <mxGeometry x="-944" y="309" width="356" height="502" as="geometry" />
        </mxCell>
        <mxCell id="5_eLyJKCKEo9sRuYJwmP-36" value="&lt;span style=&quot;font-weight: normal;&quot;&gt;одна из нескольких&lt;/span&gt;&amp;nbsp;&lt;br&gt;parts&amp;nbsp;&lt;span style=&quot;font-weight: normal;&quot;&gt;таблицы &lt;/span&gt;&lt;br&gt;&lt;span style=&quot;font-weight: normal;&quot;&gt;без партиций&lt;/span&gt;&lt;br&gt;&lt;span style=&quot;font-weight: normal;&quot;&gt;с &lt;/span&gt;part_type = &#39;&lt;font color=&quot;#ff0000&quot;&gt;Wide&lt;/font&gt;&#39;&lt;br&gt;&lt;span style=&quot;font-weight: normal;&quot;&gt;(частей может быть много)&lt;/span&gt;" style="text;html=1;align=center;verticalAlign=middle;whiteSpace=wrap;rounded=0;fontSize=21;fontStyle=1" vertex="1" parent="1">
          <mxGeometry x="712" y="334" width="295" height="126" as="geometry" />
        </mxCell>
        <mxCell id="5_eLyJKCKEo9sRuYJwmP-2" value="&amp;nbsp; / var / lib / clickhouse / data / default / &lt;font color=&quot;#ff8000&quot;&gt;data_mart&lt;/font&gt;" style="rounded=0;whiteSpace=wrap;html=1;align=left;verticalAlign=top;fontStyle=1;fontSize=19;shadow=0;dashed=1;dashPattern=1 1;" vertex="1" parent="1">
          <mxGeometry x="-175" y="286" width="840" height="902" as="geometry" />
        </mxCell>
        <mxCell id="5_eLyJKCKEo9sRuYJwmP-4" value="&lt;b&gt;&lt;font style=&quot;font-size: 15px;&quot;&gt;&amp;nbsp; &amp;nbsp;&lt;/font&gt;&lt;/b&gt;&lt;b&gt;&lt;font style=&quot;font-size: 15px;&quot;&gt;all_1_6_1&lt;/font&gt;&lt;/b&gt;" style="rounded=0;whiteSpace=wrap;html=1;fillColor=#fff2cc;strokeColor=#d6b656;verticalAlign=top;align=left;" vertex="1" parent="1">
          <mxGeometry x="-164" y="334" width="811" height="404" as="geometry" />
        </mxCell>
        <mxCell id="5_eLyJKCKEo9sRuYJwmP-5" value="detached" style="rounded=0;whiteSpace=wrap;html=1;fillColor=#647687;strokeColor=#314354;fontColor=#ffffff;" vertex="1" parent="1">
          <mxGeometry x="-146.5" y="1079" width="122" height="32" as="geometry" />
        </mxCell>
        <mxCell id="5_eLyJKCKEo9sRuYJwmP-6" value="format_version.txt" style="rounded=0;whiteSpace=wrap;html=1;fillColor=#dae8fc;strokeColor=#6c8ebf;" vertex="1" parent="1">
          <mxGeometry x="-146.5" y="1122" width="122" height="32" as="geometry" />
        </mxCell>
        <mxCell id="5_eLyJKCKEo9sRuYJwmP-7" value="City.bin" style="rounded=0;whiteSpace=wrap;html=1;fillColor=#d5e8d4;strokeColor=#82b366;" vertex="1" parent="1">
          <mxGeometry x="-18" y="379" width="123" height="32" as="geometry" />
        </mxCell>
        <mxCell id="5_eLyJKCKEo9sRuYJwmP-8" value="City.cmrk2" style="rounded=0;whiteSpace=wrap;html=1;fillColor=#e1d5e7;strokeColor=#9673a6;" vertex="1" parent="1">
          <mxGeometry x="-18" y="416" width="123" height="32" as="geometry" />
        </mxCell>
        <mxCell id="5_eLyJKCKEo9sRuYJwmP-9" value="Client.bin" style="rounded=0;whiteSpace=wrap;html=1;fillColor=#d5e8d4;strokeColor=#82b366;" vertex="1" parent="1">
          <mxGeometry x="114" y="379" width="123" height="32" as="geometry" />
        </mxCell>
        <mxCell id="5_eLyJKCKEo9sRuYJwmP-10" value="Client.cmrk2" style="rounded=0;whiteSpace=wrap;html=1;fillColor=#e1d5e7;strokeColor=#9673a6;" vertex="1" parent="1">
          <mxGeometry x="114" y="416" width="123" height="32" as="geometry" />
        </mxCell>
        <mxCell id="5_eLyJKCKEo9sRuYJwmP-11" value="Date.bin" style="rounded=0;whiteSpace=wrap;html=1;fillColor=#d5e8d4;strokeColor=#82b366;" vertex="1" parent="1">
          <mxGeometry x="246" y="379" width="123" height="32" as="geometry" />
        </mxCell>
        <mxCell id="5_eLyJKCKEo9sRuYJwmP-12" value="Date.cmrk2" style="rounded=0;whiteSpace=wrap;html=1;fillColor=#e1d5e7;strokeColor=#9673a6;" vertex="1" parent="1">
          <mxGeometry x="246" y="416" width="123" height="32" as="geometry" />
        </mxCell>
        <mxCell id="5_eLyJKCKEo9sRuYJwmP-13" value="Product.bin" style="rounded=0;whiteSpace=wrap;html=1;fillColor=#d5e8d4;strokeColor=#82b366;" vertex="1" parent="1">
          <mxGeometry x="378" y="379" width="123" height="32" as="geometry" />
        </mxCell>
        <mxCell id="5_eLyJKCKEo9sRuYJwmP-14" value="Product.cmrk2" style="rounded=0;whiteSpace=wrap;html=1;fillColor=#e1d5e7;strokeColor=#9673a6;" vertex="1" parent="1">
          <mxGeometry x="378" y="416" width="123" height="32" as="geometry" />
        </mxCell>
        <mxCell id="5_eLyJKCKEo9sRuYJwmP-15" value="timeseries.bin" style="rounded=0;whiteSpace=wrap;html=1;fillColor=#d5e8d4;strokeColor=#82b366;" vertex="1" parent="1">
          <mxGeometry x="510" y="379" width="123" height="32" as="geometry" />
        </mxCell>
        <mxCell id="5_eLyJKCKEo9sRuYJwmP-16" value="timeseries.cmrk2" style="rounded=0;whiteSpace=wrap;html=1;fillColor=#e1d5e7;strokeColor=#9673a6;" vertex="1" parent="1">
          <mxGeometry x="510" y="416" width="123" height="32" as="geometry" />
        </mxCell>
        <mxCell id="5_eLyJKCKEo9sRuYJwmP-17" value="primary.cidx" style="rounded=0;whiteSpace=wrap;html=1;fillColor=#f0a30a;fontColor=#000000;strokeColor=#BD7000;" vertex="1" parent="1">
          <mxGeometry x="-150" y="379" width="123" height="32" as="geometry" />
        </mxCell>
        <mxCell id="5_eLyJKCKEo9sRuYJwmP-19" value="serialization.json" style="rounded=0;whiteSpace=wrap;html=1;align=center;fillColor=#b1ddf0;strokeColor=#10739e;" vertex="1" parent="1">
          <mxGeometry x="-150" y="561" width="123" height="32" as="geometry" />
        </mxCell>
        <mxCell id="5_eLyJKCKEo9sRuYJwmP-21" value="metric_1.bin" style="rounded=0;whiteSpace=wrap;html=1;fillColor=#d5e8d4;strokeColor=#82b366;" vertex="1" parent="1">
          <mxGeometry x="-18" y="472" width="123" height="32" as="geometry" />
        </mxCell>
        <mxCell id="5_eLyJKCKEo9sRuYJwmP-22" value="metric_1.cmrk2" style="rounded=0;whiteSpace=wrap;html=1;fillColor=#e1d5e7;strokeColor=#9673a6;" vertex="1" parent="1">
          <mxGeometry x="-18" y="509" width="123" height="32" as="geometry" />
        </mxCell>
        <mxCell id="5_eLyJKCKEo9sRuYJwmP-23" value="metric_2.bin" style="rounded=0;whiteSpace=wrap;html=1;fillColor=#d5e8d4;strokeColor=#82b366;" vertex="1" parent="1">
          <mxGeometry x="114" y="472" width="123" height="32" as="geometry" />
        </mxCell>
        <mxCell id="5_eLyJKCKEo9sRuYJwmP-24" value="metric_2.cmrk2" style="rounded=0;whiteSpace=wrap;html=1;fillColor=#e1d5e7;strokeColor=#9673a6;" vertex="1" parent="1">
          <mxGeometry x="114" y="509" width="123" height="32" as="geometry" />
        </mxCell>
        <mxCell id="5_eLyJKCKEo9sRuYJwmP-25" value="metric_3.bin" style="rounded=0;whiteSpace=wrap;html=1;fillColor=#d5e8d4;strokeColor=#82b366;" vertex="1" parent="1">
          <mxGeometry x="246" y="472" width="123" height="32" as="geometry" />
        </mxCell>
        <mxCell id="5_eLyJKCKEo9sRuYJwmP-26" value="metric_3.cmrk2" style="rounded=0;whiteSpace=wrap;html=1;fillColor=#e1d5e7;strokeColor=#9673a6;" vertex="1" parent="1">
          <mxGeometry x="246" y="509" width="123" height="32" as="geometry" />
        </mxCell>
        <mxCell id="5_eLyJKCKEo9sRuYJwmP-27" value="metric_4.bin" style="rounded=0;whiteSpace=wrap;html=1;fillColor=#d5e8d4;strokeColor=#82b366;" vertex="1" parent="1">
          <mxGeometry x="378" y="472" width="123" height="32" as="geometry" />
        </mxCell>
        <mxCell id="5_eLyJKCKEo9sRuYJwmP-28" value="metric_4.cmrk2" style="rounded=0;whiteSpace=wrap;html=1;fillColor=#e1d5e7;strokeColor=#9673a6;" vertex="1" parent="1">
          <mxGeometry x="378" y="509" width="123" height="32" as="geometry" />
        </mxCell>
        <mxCell id="5_eLyJKCKEo9sRuYJwmP-30" value="metadata_version.txt" style="rounded=0;whiteSpace=wrap;html=1;align=center;fillColor=#b1ddf0;strokeColor=#10739e;" vertex="1" parent="1">
          <mxGeometry x="-18" y="561" width="154" height="32" as="geometry" />
        </mxCell>
        <mxCell id="5_eLyJKCKEo9sRuYJwmP-31" value="default_compression_codec.txt" style="rounded=0;whiteSpace=wrap;html=1;align=center;fillColor=#b1ddf0;strokeColor=#10739e;" vertex="1" parent="1">
          <mxGeometry x="149" y="561" width="192" height="32" as="geometry" />
        </mxCell>
        <mxCell id="5_eLyJKCKEo9sRuYJwmP-32" value="checksums.txt" style="rounded=0;whiteSpace=wrap;html=1;fillColor=#b1ddf0;strokeColor=#10739e;" vertex="1" parent="1">
          <mxGeometry x="-150" y="606" width="122" height="32" as="geometry" />
        </mxCell>
        <mxCell id="5_eLyJKCKEo9sRuYJwmP-33" value="columns.txt" style="rounded=0;whiteSpace=wrap;html=1;fillColor=#b1ddf0;strokeColor=#10739e;" vertex="1" parent="1">
          <mxGeometry x="-150" y="648" width="122" height="32" as="geometry" />
        </mxCell>
        <UserObject label="count.txt" id="5_eLyJKCKEo9sRuYJwmP-34">
          <mxCell style="rounded=0;whiteSpace=wrap;html=1;fillColor=#b1ddf0;strokeColor=#10739e;" vertex="1" parent="1">
            <mxGeometry x="-150" y="690" width="122" height="32" as="geometry" />
          </mxCell>
        </UserObject>
        <mxCell id="5_eLyJKCKEo9sRuYJwmP-37" style="rounded=0;orthogonalLoop=1;jettySize=auto;html=1;fillColor=#ffe6cc;strokeColor=#d79b00;strokeWidth=2;dashed=1;dashPattern=1 1;" edge="1" parent="1" source="5_eLyJKCKEo9sRuYJwmP-36" target="5_eLyJKCKEo9sRuYJwmP-4">
          <mxGeometry relative="1" as="geometry" />
        </mxCell>
        <mxCell id="5_eLyJKCKEo9sRuYJwmP-38" value="одна из нескольких&amp;nbsp;&lt;br style=&quot;border-color: var(--border-color);&quot;&gt;parts&amp;nbsp;&lt;span style=&quot;border-color: var(--border-color); font-weight: normal;&quot;&gt;таблицы&lt;/span&gt;&lt;br style=&quot;border-color: var(--border-color);&quot;&gt;&lt;span style=&quot;border-color: var(--border-color); font-weight: normal;&quot;&gt;без партиций&lt;/span&gt;&lt;br style=&quot;border-color: var(--border-color);&quot;&gt;&lt;span style=&quot;border-color: var(--border-color); font-weight: normal;&quot;&gt;с&amp;nbsp;&lt;/span&gt;part_type = &#39;&lt;font color=&quot;#ff0000&quot;&gt;Compact&lt;/font&gt;&#39;&lt;br style=&quot;border-color: var(--border-color);&quot;&gt;&lt;span style=&quot;border-color: var(--border-color); font-weight: normal;&quot;&gt;(частей может быть много)&lt;/span&gt;" style="text;html=1;align=center;verticalAlign=middle;whiteSpace=wrap;rounded=0;fontSize=21;fontStyle=1" vertex="1" parent="1">
          <mxGeometry x="712" y="752" width="289" height="128" as="geometry" />
        </mxCell>
        <mxCell id="5_eLyJKCKEo9sRuYJwmP-39" value="&lt;b&gt;&lt;font style=&quot;font-size: 15px;&quot;&gt;&amp;nbsp; &amp;nbsp;&lt;/font&gt;&lt;/b&gt;&lt;b&gt;&lt;font style=&quot;font-size: 15px;&quot;&gt;all_13_13_0&lt;/font&gt;&lt;/b&gt;" style="rounded=0;whiteSpace=wrap;html=1;fillColor=#ffe6cc;strokeColor=#d79b00;verticalAlign=top;align=left;" vertex="1" parent="1">
          <mxGeometry x="-161" y="758" width="550" height="301" as="geometry" />
        </mxCell>
        <mxCell id="5_eLyJKCKEo9sRuYJwmP-40" value="data.bin" style="rounded=0;whiteSpace=wrap;html=1;fillColor=#d5e8d4;strokeColor=#82b366;" vertex="1" parent="1">
          <mxGeometry x="-15" y="803" width="123" height="32" as="geometry" />
        </mxCell>
        <mxCell id="5_eLyJKCKEo9sRuYJwmP-41" value="data.cmrk2" style="rounded=0;whiteSpace=wrap;html=1;fillColor=#e1d5e7;strokeColor=#9673a6;" vertex="1" parent="1">
          <mxGeometry x="-15" y="840" width="123" height="32" as="geometry" />
        </mxCell>
        <mxCell id="5_eLyJKCKEo9sRuYJwmP-50" value="primary.cidx" style="rounded=0;whiteSpace=wrap;html=1;fillColor=#f0a30a;fontColor=#000000;strokeColor=#BD7000;" vertex="1" parent="1">
          <mxGeometry x="-147" y="803" width="123" height="32" as="geometry" />
        </mxCell>
        <mxCell id="5_eLyJKCKEo9sRuYJwmP-51" value="serialization.json" style="rounded=0;whiteSpace=wrap;html=1;align=center;fillColor=#b1ddf0;strokeColor=#10739e;" vertex="1" parent="1">
          <mxGeometry x="-147" y="886" width="121" height="32" as="geometry" />
        </mxCell>
        <mxCell id="5_eLyJKCKEo9sRuYJwmP-60" value="metadata_version.txt" style="rounded=0;whiteSpace=wrap;html=1;align=center;fillColor=#b1ddf0;strokeColor=#10739e;" vertex="1" parent="1">
          <mxGeometry x="-15" y="886" width="154" height="32" as="geometry" />
        </mxCell>
        <mxCell id="5_eLyJKCKEo9sRuYJwmP-61" value="default_compression_codec.txt" style="rounded=0;whiteSpace=wrap;html=1;align=center;fillColor=#b1ddf0;strokeColor=#10739e;" vertex="1" parent="1">
          <mxGeometry x="152" y="886" width="192" height="32" as="geometry" />
        </mxCell>
        <mxCell id="5_eLyJKCKEo9sRuYJwmP-62" value="checksums.txt" style="rounded=0;whiteSpace=wrap;html=1;fillColor=#b1ddf0;strokeColor=#10739e;" vertex="1" parent="1">
          <mxGeometry x="-147" y="930" width="122" height="32" as="geometry" />
        </mxCell>
        <mxCell id="5_eLyJKCKEo9sRuYJwmP-63" value="columns.txt" style="rounded=0;whiteSpace=wrap;html=1;fillColor=#b1ddf0;strokeColor=#10739e;" vertex="1" parent="1">
          <mxGeometry x="-147" y="972" width="122" height="32" as="geometry" />
        </mxCell>
        <UserObject label="count.txt" id="5_eLyJKCKEo9sRuYJwmP-64">
          <mxCell style="rounded=0;whiteSpace=wrap;html=1;fillColor=#b1ddf0;strokeColor=#10739e;" vertex="1" parent="1">
            <mxGeometry x="-147" y="1014" width="122" height="32" as="geometry" />
          </mxCell>
        </UserObject>
        <mxCell id="5_eLyJKCKEo9sRuYJwmP-65" style="rounded=0;orthogonalLoop=1;jettySize=auto;html=1;fillColor=#ffe6cc;strokeColor=#d79b00;strokeWidth=2;dashed=1;dashPattern=1 1;" edge="1" parent="1" source="5_eLyJKCKEo9sRuYJwmP-38" target="5_eLyJKCKEo9sRuYJwmP-39">
          <mxGeometry relative="1" as="geometry" />
        </mxCell>
        <mxCell id="5_eLyJKCKEo9sRuYJwmP-67" style="rounded=0;orthogonalLoop=1;jettySize=auto;html=1;entryX=0.5;entryY=0;entryDx=0;entryDy=0;dashed=1;dashPattern=1 1;" edge="1" parent="1" source="5_eLyJKCKEo9sRuYJwmP-66" target="5_eLyJKCKEo9sRuYJwmP-2">
          <mxGeometry relative="1" as="geometry" />
        </mxCell>
        <mxCell id="5_eLyJKCKEo9sRuYJwmP-66" value="&lt;span style=&quot;font-weight: 400;&quot;&gt;Директория с parts * таблицы&amp;nbsp;&lt;/span&gt;&lt;font color=&quot;#ff8000&quot;&gt;data_mart&lt;/font&gt;" style="text;html=1;align=center;verticalAlign=middle;whiteSpace=wrap;rounded=0;fontSize=21;fontStyle=1" vertex="1" parent="1">
          <mxGeometry x="225" y="189" width="230" height="57" as="geometry" />
        </mxCell>
        <mxCell id="5_eLyJKCKEo9sRuYJwmP-68" value="&lt;font style=&quot;font-size: 25px;&quot;&gt;Пример таблицы без партиции&lt;/font&gt;" style="text;html=1;align=left;verticalAlign=middle;whiteSpace=wrap;rounded=0;fontStyle=1;fontSize=21;" vertex="1" parent="1">
          <mxGeometry x="-175" y="-64" width="428" height="30" as="geometry" />
        </mxCell>
        <mxCell id="5_eLyJKCKEo9sRuYJwmP-69" value="" style="shape=image;verticalLabelPosition=bottom;labelBackgroundColor=default;verticalAlign=top;aspect=fixed;imageAspect=0;image=data:image/png,iVBORw0KGgoAAAANSUhEUgAABi0AAABWCAYAAACzStXbAAAABHNCSVQICAgIfAhkiAAAABl0RVh0U29mdHdhcmUAZ25vbWUtc2NyZWVuc2hvdO8Dvz4AAAAuaVRYdENyZWF0aW9uIFRpbWUAAAAAANCh0LEgMDIg0LzQsNGAIDIwMjQgMTY6NTE6MTRDm/IZAAAgAElEQVR4nOydd3RUVRPAf7ubRkKA9NA7BAidhNCbSO8dBMUCCoogFhRQFBUURQXUT8WGiDRpIr1IR3qX3nuAQEIIyW52vz9SSDa77+1u2ibM75w9J9n33sy8mTv3zr2vrObC2VMmBEEQBEEQBEEQBEEQBEEQBEEQchlNQkKCCWDs2LF89NFHuW2PkA1IbHMH8btzIHEQBEEQBMFepH5wDiQO+QeJ5eOBxNm5kHg4HxKTnEX8nbdJvWjh5uZGQkJCbtsjZAMS29xB/O4cSBwEQRAEQbAXqR+cA4lD/kFi+XggcXYuJB7Oh8QkZxF/5220uW2AIAiCIAiCIAiCIAiCIAiCIAgCyEULQRAEQRAEQRAEQRAEQRAEQRCcBLloIQiCIAiCIAiCIAiCIAiCIAiCUyAXLQRBEARBEARBEARBEARBEARBcArkooUgCIIgCIIgCIIgCIIgCIIgCE6BXLQQBEEQBEEQBEEQBEEQBEEQBMEpcIKLFnp2jgml5rg9GLJc9GZGVQ7jg0NZLlnICtTio/+Xt6vX4J3dEr9cQ2KQe0j/JQiCIAiCkH9Qq6ul7haE3EFyz/mRubEg5H4doSj/0dp+VuKSpdKyG/123qj5Iq6/7uPjsLxl+mOBxCf/oStD57HvoCntBNc38zOSO4IgCIIgCPkHS7Vd2rpabbvgPNhTp0tNr4rb10cBSBheDYCDtx4SNu9M6vbdfcpT098jdT+dRkMBFw339cbUYzKF5F46cj0eQgYkJgLgnHVELvSVNo+khb/7jziDEb8CLlx7tjLwKJk0Gg3xw6qm7hv04wmiHhoo4KLl3tAqWWyykNVIbHOHPOF3bRAN+vbNOX25QJ6IgyAIgiAIToXUD86BU8YhMZFES9+nrav1KtsfQ/JULAWHcPv6KANDivDb8bup34XNO8PN50Mo4q5LXZxNGF4tdfHVYDQRqzcSMPN49hn2mOae08bDnMcoD7M1JomJJOp06LLzBPIgeWrsye06Ihf6Spsuj6QEEeB2nCE1gCmYTKbU79y+PkrUw6RHReIMxgz7gomYfd/wVL2S+AeWpla3yWy9bUqz+RZrP+hG/YrF8Pfxo0StrkxYfQ0j8awYNYifL5zhh54hVKhQladmX8dkdf8UjNxY9z6dqpciMKA0DZ77iSMP1HQBxqusHNeR6iUCCQgMplTV1kzaldQq9JdWMKF7HUoH+OBXsg69P9lMZJpTyCrcvj2G29dHlT/fHsuUjqyLbTbExwzxu7WcUvCNfjOjKtdmyKS36dmiIXVDKhE2aCZHH6ZqInrPDAbULUlAUGlqdZ/IZy9Ue/S6trSPf6nKytoY5cU4jKpUi2ffH0W3Vs1oUCOUxjb1N1ZyBwAjd7Z9Rq/aJfD1KU5dM38LgiAIgpCePFc/qNVXSrW0fjOjKtdlxPSJdKteDF+/crQcs4LL55fyRusQgnz8qdjhY7befVSMST2d1XUcaWI4hm6N6xFa/3WmvGqhtkutq2Mt135mr12IPTqL4S0rEezrS3DFFrz06xFi0+mzXpNnJRJLa3W6OZZq+iucmtqMEn3mccf0aL8tr4VQZfQW4vWblW0lf+XsqUGV+LFV8XTfJQyvRhH3pGXU0t6uGY4xAQEzj2e8g1xlnSHhwnLe7V6P0gG++BWtQMOhc7lgtDLvSs29eE5OaUzxvguIShOvraOrUHnUZuKReFiNh73jkV15+BabEtJbcXfnZNpUbsDrq65jVFi7y0ryZkwy+tHy2GLi1qxuFOs+m9smwLCPd2t44d9vIdEA+u28WbU27+4zKK6VZiUy9jhhHZFOvsrafhZh00WLlCBaetQo7RU+S99n2Ba3lQlPTSJq4HLOXj/DmhFxLF50Kc0itgnPqoP5bstpbty+wPrR3sx5YQx/3XOn/RezGFy6PC8sPM7p08eY/VQwGqv7J4sznOTPlR6M23SO6ycX0uXieAZO3kOCoi7Q7/yC0cvK8tm+q0TevMyRFR/TsaQO9IeY0nsoG0M/Y+fl21ze8j5B855h5J+RVooXx0l4qSpoNdZ30GqS9skEWRfb7IhPGsTv1nNKzTeGk6z7rzZfrNnO3kPL6X/5PcbOvZG07cEWJgycQuxzKzl77SzrRhv5e2nafDRDSZaCHY6Q5+IAkHiStUfq8NWqTezYt5JhsR8xSLW/sZY7gOEUi/7W8tqac9w8NYcnjo3lnbk3MnXOgiAIgpCfyZP1g1J9pVpLn2bpem/Gbb7Itb0TCPjjRZ54djnVp+/m6uVNDDNM5+2Zp5Pu2JN6OhvquORjDSdZvb8Kn6/fw5E9UxnzlZXaDrA+b0p7ctt4v88YTraexdGbNzk2uw1n3unDe1vjUvVZajPZgcRSJVapWIprccr36kfotrn8nbKyHbeFucvc6N43Anc1W7N4fqVETsTZ0oJrWgJnHmd8eGDq/25fH6XUzyf5rHGwhb0V4piwj8k9X2BdhffZfOE2kee28/0zoXhp1HJPR4UePam4ZT6rUq4yPdzBgr+0dOkdgXs+60OzNh7YNx7ZlYdTaOmWosTIzfVj6TRoDY1m/s2UtsEkWlu7y2LyZkzM/JhobWx5iE+DRpTft5nd8WC8tp2d8SXw3b+FfQmQeH4bO+Lq07iqi/W10ixGxp7cqSNs7stU1/azBptfRJUSEPPAVPztFBV/O2WzQv3uRSxL6MYbL9akkNaFwBZv8kpLj0c7aAJo1LMztYI90WkLUrnfq/T23cO2Y1au3KntrylCh5GjqO+rQ+sTxqujO3JnyRIOGZSP1bi54RJzicNHznFH70KhMmFUL6pFv/d3Zl/ryNh3WlLUXUuBMh1556UQNi7eipUHBDKF1UTNggRN1ZFFsbVIZuKTBvG7dVR9oy1BtyHdKOkKuJWjVfNiHD90EgOg37OYv4w9GP18KN5aHf6NRvHyE57WlSnJUrDDUfJSHADQBNBxSG9KuQIuJek5pD33lqr3N1bRBtDltVdpEOCKi38j+nYozolDJ+2zSRAEQRAeM/Jc/aBQX6nWD1p/urw6jLo+LriX6Ua3sPt4tRhB/xBvdF5V6NGxKqcO/adaqz3u9TSQuTpOG0Tnl/pRzh2wsqRtD/rdC1n8oDtjRkXg5+KCb/1RvN3jIYsX/Jv0RggrbSa7kFg6jrZEV/rV28P8v5Ke0Li/YS5/F+lJn9quqrZmx/xKiZyIsyXuxifi9vVRXqnpx/iwgEf2DK/Gtecq8/rW64zeej39QQpx1O+ew5zILrw3oQOlPTVoPQIJbRCKvw3h1JbpRs8q25i/IulCRNyW+Sz36Eqvem75sg+1hEPxALvGI4fy0KTn0tJXaD/sEN3/WMr4Jr5owOraXXaQ92KS3o9KY4uxTCMaeP3L1iN6YnZu53LzUQwutpttp/Tc2b6NM7WbUM89//k7v449jtYRtv6Et+rafhZh829aWHr0BeDUwIoWt++6kXT1RqvRUC/wkeGJt29yt2gdSqRq9qJkab9HV09M0ez7aSzvfreWY5F6tDoDMTehZ6yV6z1q+2sDKFEs9bIsrsVKEBB1kVtG5WNdWr3Bz+Mm8OE7bfjkjIbKbV7ggylv0vD6Za5F/cPL9baQKjUhBteaMdw3gVfm21YGEl6qmvTYkzHlnLK2Q8yq2FokM/FJ48tE8bv1nFL0jR9oC1G4UIqDNLi6upCQkIAJMN6+wd3AuhRNvTBegOBiPtavZirJUrAjM+SVOCR96Ueg/6O7DLT+gfjcUe9vrKL1JSBVngYPD3cSbmd4DkkQBEEQBDPyVv1gvb5Sr6V98fdLqdzc8PBwwc/fN7mW0+Dm4UZiQgJGwCT1dPbVcVpfAvyybtEm8fZNooJqUDz1plsXSpQM5u7eWxgItNpmshOJpYNogujYvxHv/riEy8/0Z8/cNRTvtYZqLiS9k1zBVqV5XnaR3XE2J+Ud/Qvbl6JzWW/LNg2vhtvXR/k87d3kCnFMjLnG7aI1KO3ugEHaknTtVYOPF67gxoBe7F+wksLdF1PbFQz5sA81x+F4gF3jkUN5aLzKiv8txK/Pnwyu4526XORS1/LaXctsXEjPSzFJ60fFscW1HU3Copi67Swtzh4itPmXtPT7jonbL1Hr3/1UajKVIhrQ5jN/59exx9E6wtYnLVTX9rMImy9awKNESEvK/y5mV78aLzyb7rgUdH6B+ETd4rYRKugA9NyOvIexZNJ2w5GvGPrBFZ5fsZMl1YrgYtjPe2HdSHkAUoOJtF5U2x9jJJevJkDtpFPVX71MpE8Q/lqVYzVFqPvclyx+7kv0tw4wc2gXnp9Un8N9ihJUrB8z931G40dr7dlOaqIm/53l8rMgtpC18UkrRxcgfreaU0q+0W9W1K/zC6LIzStcS0zJxziuX43CWM7uU8nWGOWFOABgvMGFy/Gp7Tnh0gVu+gSr9zdkzB1BEARBEDJHnqkfFFCtpe1A6unsq+Ms3RWpVtspbdf5BeJz4zJXDRCiAzBw+dJ1igT52zeBz2Iklupk3FeDX9sBtHxzKgv3FWbHxgr0/qDSox/DVbA1v+ZsWsLmnWF3n/LU9H+0+Hc3PpHANO/oP3gr44vWleKoCyyG3/XzXEyAkAIZdSrHU0vxzr2o8/5Clp/yZdvqALr/XR0XwCTxACzHw14cyUN0pXnhp3e58/Zgen06n0VvhuGtwera3fFpLciuMOWdmKT3o/LY4kl40xocX/YLK24E02ikHzUK1+Ps7JmsPlyIBkNKJS1I50N/59WxJzfrCLW1/azC7tdDLepQ2uL2PX0qABA3LH3Q7gxJ/4vqrvW60dG4hJ/WRGIE9Gfn8OOae6l+Nt2/zwPPElQsXQQXjERu+Ik/TyW/FUvrg2/hKM5diLZtfwDTXVZMm8buKCPGu3uZPnU5Pp27UMNF+Vj98dUs3HGBGAO4FgokqLA7Oq0Ot7ABDCi8gPcmrePSAxMkxnHzvw2s3JP17zE0J+GlqtmWoJD52GZ1fNLiKn5PJUNOZcI3rvW60EHzJ1N/PMp9UyK3tn3BjHWOPdyqZEdW4OxxAMAUzcqvprLzTiLGqF18+fnf+NrQ31jKHUEQBEEQMk+eqB8UUK2l7UDq6UdkaR1nCbXaTmW7a1gPuhRYxKfT9hCVmEjUnml88qc7XXuEo/zG8+xHYqmAtX0LtaJ/+0vMHPoJW0L70KN0mmUYBVuze36lRHbEefTW6+l+1DZloTVs3pl0P65bxF3HwJAiqf+nLNqmRSmOrmF96ee/lA8mruJSnAlTfCRHdx7llgmb4qkJ7kiv8H38NPJL1hbvQc8qumS5+asPzcp42IujY5u2aDu+WP4VFeb0ofcX+7mP9bW7bHjwJR15MSbKY4sG/waNKLP9B36LrU/Dkjo8wptQefMPzLkTTuPQ5BuN85G/IQ+PPblcR6it7WcVNl1gSXv1qGOZglbf+QWg06jcPeTZhAm/DuPFl1sQ9kkwvgG1qN+yFOeTN7uGv8xHbZ/mlfAwAkr44Ve1IRGVk+9D0FWiz6vtWPx6CAHDXGnyyR4WPa2wP4BLJbq3ieWDpmX49zqU7TiBWW+HJV0BVNBlij7C7FeH88rZuxh0XpRq/Dz/+7gxrm5a3l74HYweR9OyvYk2eRFYqQH9351OW1uc6WRkaWyzOj5pcastfrdGZnzj2Yz3Z73Gi0OfpMwEF0o0fJ7+nYozV+fADykp2NHOfmk5QpbGAcClEr06JPBRs7LJ7fkDm/obi7kzMItOUhAEQRCELCXL6wcFFOdG9iL1tLJAR+s4S6jVdmrbCzRmwtwPef2VvoRMugO+1ek6cS7vN/VMeqVQPiPPxfLZopYX6Kzu60nT/l0w/PIz4SO6UDztraNKtubB+ZUSnzcOzvD6Gmux/LFVcd4ND2TVhRiGhvpm2K7YN7rV5e0F/yNh5BgaluhPnJsvlbt8xJzwavjbMu/SBNK+VwNGP7uaKpO+p2JK88hnfWhWxsNeMjO26Yp1ZvpyAy+260E/1yX8Vt/K2l2mrcx5sj0mSmMLoKvQmAaFJnKxfmNCXUDj05DGZeLY4NeU8OSnlqyulTp81rlHnht7nKmOUFnbzyo0CQkJJgA3N7dsfw+mkDtIbHOHvOn3e8zvE8IPTXezeniJLH8fXW6Qk3EYVTkMnwU7eNf8USFBEARBEPIUebOOy39IHZd/eNxjaTz7BS2b7ODFQ/Po65d8yUO/mVGho53O1swgfadzIfFwPiQmOcvjPvbkdfLDmqQgCA5j5MqO1ey9kYCJBK6tn8yXmyvS5omi0jkIgiAIgiAIgiBkmhh2fjeLSx2eoYNfdr9ERRAEQRDyB/KkxWOAxDZ3EL87BxIHQRAEQRDsReoH50DikH+QWD4eSJydC4mH8yExyVnE33kbuZlaEARBEARBEARBEARBEARBEASnQC5aCIIgCIIgCIIgCIIgCIIgCILgFMhFC0EQBEEQBEEQBEEQBEEQBEEQnAK5aCEIgiAIgiAIgiAIgiAIgiAIglMgFy0EQRAEQRAEQRAEQRAEQRAEQXAK5KKFIAiCIAiCIAiCIAiCIAiCIAhOgynl07RpU1Pa/+WTPz7NmjUzffjhh7lux+P2Eb87x0fiIB/5yEc+8pGPfOz9SP3gHB+JQ/75SCwfj4/E2bk+Eg/n+0hMxN/ysf2jSUhIMAGMHTuWISPHIeQ/vNxMxCZoctuMxw7xu3MgcRAEQRAEwV6kfnAOJA75B4nl44HE2bmQeDgfEpOcRfydt0l9PdSUKVNy0w4hG/F0zW0LHk/E786BxEEQBEEQBHuR+sE5kDjkHySWjwcSZ+dC4uF8SExyFvF33kZ+00IQBEEQBEEQBEEQBEEQBEEQBKfAgYsWevZPrEe7SftItGFvw9k5vPlkZepVKc8zP1/AaL/CZEG7+aRZOJ8eMDgqQVDFvtgKgmAjafuvdH9vZWLDxnx1LAv6NWs6FI9R0J+Vtgl5mIzjQpaN63kCGRcd4fFqI1Zwlj7UkbFBcBzxd97GrpglcGxqa57636mk8SHxDD/3asHUA/HZbKSgHCcZtwVBEIRMIvWc05DNT1ro2ffzZI40+Y2t/53hl8Gls0ahYScfN5ZGk6vklRg4o52JR5nxpD+Vyj7Jj+fTlNPGi8zqGUSl0vWZeigH7Y2Zx4vlClOxuKVPEC8tup9ztuQCxsv/Y2CTMezR55BsbWlaj3yD1iVs7w3tttEBHXkFVV/kUM6ntSPuv98Y3606dcsFUa9hRyYuO0OChWMSL/zA0yFFqDbwN6JMKd/eY/EzQenyrnKtEWw1O7+c1mcd83E9mCMzn2XQk6HUKe1LwzH/YC7KFLOXX4c3pVGlYGrVa8lbsw/zIM32B0d/5Z1uNahXLoDqoXV5+t0/OWfphACI55CSPuNVVo1tT/uwstQoE0idsOa8On0ztyysmlv2j+NYl/eAUwvf5Omm5alRtigRTbvw/YFkqx8eYeHbvekWXopqpYOJaNGdSX+dthjPTPHgT4Zn6Od9af7edgxZboel2k/BByoot3f19mxrvihhMbaZ9ZlaTGwge8YvlRxTxJE426YvO8fq3MU5/Z0nyOUa33R7Kd8uKsWAfhXQAejK0WNwBVZM+5PILBhTHh8SOTujBbUHzuZOit8MB5jawo/qGb4rxctLo/N1nSsI1slH/XdeQbVWy+y8yhlQriXU5nFq283JrDx79Ql5n2y/aHHzehTB5cvhnr2KBCEjiYlOfIeNCyVL3GbFspOpNiaeX8TfV0tSysMBcZk5V+9ezDh+gyNnb3DkxJ/0DQ6m12+Xk/4/e5HpXQtmjR6nxMSdLRu4HPEEoVn1rsNUH1mRrQ2kTrde1Pa3tft1wEa7deQVsiFe5tjUxtPYkbiNqS+M40TEdJYfOcfyKQ04Nv4Z/nfE/KrDVZZN/Jn4kLJJixvpcKXZlBPJOXeDw7um0jDd+eW0PiXMx3UN7kUj6PrGt7zVKchCURHD1g+f4bvofvyw5wKbZnbm+qdPM3VHXNJmwxF+HPkW+6t8wrJj19n197sU2ziCcb9ZuztfRZ+mIJW7T+CrRTvZcug4f30/CNPvzzN5bYwd/nEAq/KMRC4bznOfXqDxxJWs33eQBdNHEp6cm6b469wt3I5Xf9jIxj27+fY5H9a9NpgfjmdxT+vZja9S+vmzNzhy4Efa+ZWgVds6uGS5HeZtRNkHijy0pb0rtGebjlfBSmwz7TOVmKiTXf2hWk5bw9E426IvB/r+XMMZ/S2oY+TaslkcrNuDZoVTftxTQ6HmPal3eDbLLz6Wz5c5iI5S4RH4HN7BoeSHVIw3d3EgvhxFT6X/bt+VaoTVKZiP61xBUEL67xzHplotM/Oq3EatllCZx6luNyez8uzVJ+QHbOjrTMQe+p5RrStSu0pl2j/zOXvMbkk0XFnNl4Mb0jCkKLVqNWT49K3cMd5lxchGTNx4n92TmtKiYXd+PnmTrZ/1oWtEOWpXLE5Ey958ufFa0sJEwl+MqtqB366mFHl69kyoTadPD5otICXwz7jnWXDpLHMH16J5/TqMWngDuaHFEVRia7ptJV7xlmNgdX8FDFuZ2LAhE2ZOYkizctSsXJV+E1dz7eJffNyzFvUqlqB5/ynsiTap2JQiqwFvTxvP0I6NeLLt23z/jrO2FR0hXbtg+utPjhsAEjm9dDEP2vekuqsmdS+LuWXCwrmO41+9ifsH/sfIJypSp2oI7QdP5ofX6qZ/rYtFeVpc3Dxwd/fA3d0NrUaDzsU96X/dbiY1NtejYJeSzc6IKZqdG49Ru0UY175uRf0hi7iXams8e96rTcvxW0mwq90l+eiR7AjSXYfK8HihkVubP+K5ZpWoGxJC95G/ciLtuGsmR39pBVMHN6JRSDFqhYbS4/UFXDFPMjMdNh2Diei9nzOoYXM+2nAjOW+N3Nv1FcNbVaBmxfJ0evkXTqZ560Hc8d8Z370G9SoVo15EW8bNO0ocqPfnxqv8M6k7bWqWok6VMjRs3IFv9ictIiq2n7S+sCgj1ur4YNVWK/Gz1Q7X42vYdKspg4Y3p6inJ8GNRjG40UWWLNyb5m5pE1GrP+AnhvFqKx8eZXgKGrSuHri5J+Whm5tL+sE5R/UpjAsmC+P6KR2VOwyhe+sIyhSxUFI82MzSlS50GvEcVQu5U7jWS7zUKYEVf24jHsB0nWuRQTTu+gTFPHQUKN2Ozo0LcenMRSsXj9yU9WkKUbZuOBVLBlG4kC/BpcoRUCCaa1fupRmLlPyjXvNkREGe4T/+mL6J6mO+5vlmlQjwCaRkzRbUKpG0/K0p/ATPjxlM85rlCQwoSe2+r9G1zBkOH4lNFm3HuKq4b9p+3p3YzYvY7tONLmEettmBjX27pTZy/IiiD5RkJ9rU3q23Z1uOVz4v67G1xWfK/btyTFRtS9sfOlJ/WUUlx6yh0tYzpc/aeJpb5Hd/5wmszEXU6g/DViY2iODNKW8ypMeTdG9ej57mdVcarOag6TbbNxyicqMICqQ9oEB9IkKPsmnLTSeZb+QNXKo1pGbiLnYnTYp4sG8Hl8OH0bvM/jTfbed4sQjqFNWa1bkOrlVIgIQ8R37pv/MS6rWa6jzOmVGrJdTmcWrbzcmsPHv1qZGl9ZyQXajn08PtfDFsCnd7L2LL0aP89kIcq/6+/CiQhiN8/8LL7AiZxJJDV9i5bCz+S4bwwd8G2n25lXHNChL+zmY2bl/E4IpaPCoP5ONlR9lz4iRzXvJm6Wvvsi5GyQBz3Gj+4Ux6lSxH358P8M+/+/iiZ5CFRRlBFbXYYrISL3crMbC2v4odhrOs2ezNK8tOsnvtWPwWv8JTI1cRMmkr/x5cw0DDN3wy+0zq3euKOgyn2HS4MmMXbWPN2k946WPnbSsulXrQ3ms5yw8mgOEgfy3X0a5rtUdX7a3l1vJbSROhdOf6MQ0N2/hi+BfEDljCliNH+f2lRDastCFXU+RZw1yPRkGOozpyi7htbD5Uk6YNClG6YzfK7lzEprvJlsbv4u81Wlp3CcfNrnb3cdLdFamyvZRtMJxm5boCvLL0P3b/+zutL3/Aa9P2PXrcN60c/QG+eW4428qMZ/7+K+zbu5GP+1bFU6lR23SMkdtbJvDcy+uoO3Ux77RMvnvHcIZVa7U8N/8/9v37K41OvMeUxckT8Yc7+HLIeM41n8m6YxdZ/01rLnw0iKn/qt/pYNg7g49Wl2Hs+rPs++80a+Z8QMtiOvU2msYXlmUUsNw3qdlqTxs3j4klNEZunjxBSlMyxWxi2tSr9Bzbm2CLo66efZ+2oFmdUNp1f56vN1xK/3qYnNSnNC5oitA+w7iuvECWeOUEZx9WIqSyW/I3blSoWpHYU8e5aQRcG9BzYFEOLV3P1XgjcRdX8dd2Fxq2CLXxbnMr5ze5CQ1rlqF2na4sMPRgYPtiqQWPon9Ux8WMKMkz3dnFvgul8Tkzlp71SlCzWk36vfU7J608x2y8tZdD18oQEuKZIsGOcdXGfY3XWLNwM8W69qaaFSdnsMPWvt1CG3nGd6+yD+wdN8zau2r+KB2vols9lxR8Bur9e+rBFmJiR39oXzvJHuxt63Zh63iaY+Rzf+cJrM1FbCDxFFtO1OK9eWtYtG4JAx98ymhLeamUg4mnOH7GhzJlvNPr1HhRpnwA546dtPk1bwLgWY/walfZt/sqRhI49u8hyke0JaK2loOp3+3BrW5DKpmPW46uVTjr3EQQBOfEav1sZx3qRKjVEmrzONV5nhmZlWevPhs8kOv1nKCO6kULw/6lrNN3ZujT1SmodcGv0Ws80+TRy54MB+ey+EY7Xh7ZjEA3LR6l2vPy4EpsX7Gdh+bCNP7U69SRqoEF0Gm9KNdtOB189rH3RJ566Vu+QS22dsfL0fhq/Xhy6BCqF3bBrVQX2tS+j2ejYXSpWBCdZwhtn6zCuWPHky5aqOnQBtL6md6UcgOc5vKEFbTlaNfJn/VLdhGzdwFri3SnY/lHI6Bqbpmdq/8H1O0AACAASURBVOHAMtabujLkqWp4aXX4hI9gULMCtsuzaqeZHgU59x3VkUsk7FvH3nKtaFhEg7ZkZ9pX2s7f65ImMQ93LmSDe0c61HJzqN2lla2IpjCtXnyFWkV0aAvXZfCw9txduYz/DBltNOyfx7LbnXj1zbYUL6BB6x5A5XrV8FFQoXqMycC1laN55q3DtP3fAkZEpLmbWOtP65eGUcfPFZ1vBJ2eKM7ZY0k/OGnYv5jVcV0YNjScIi4uFK7zMsM6PmTNsj2qhZrG1RXd/cucOH6eewYXCpaqS0iQVrWNpvWFNRmWfaBiqx1t3NwOXeVWNPLdzOz/bSUyIZ7IndP5ZcN9jLExxCWtLHJwxnscbjeRfmUtLfB7EDroG6b9OJ/f//ydt56M58+X+jAtzQ955qQ+1XHBXh7E8EDjiWfqDUkaPL284EEsD0wAnpRv3pnAzc/QvIIftRoOZX/Ex4xqaekJEVtxpcbLi1m6eiOzvxlHj9YNKOOd0jaU/WP/+SvLM0ZHER1/gFW7KjBmxSl2bZhGnSNjGPHl7owLZA+P8tuoSVzu+hGDU2ZD9oyrNu5rvLSYpfuq0qVbiOVXY1mww+HxwwYfKMnWq7Z35fasli/K56WWSyqxA9X+XSkm9vRDzlBf29XW7cTm8TSnyOf+zvdoAmg1sAfFXQCXErQf1IaYVRnzUjEHjTHE3PfEK8NdI1o8CxYgNjpaFsTtQRNA7fAynNq1i/uGs+zZX4Q6dQKpGF6ba7uTv9tzj9CIuriZHZqlaxWCIAhWsFw/q8/jnBnVWkJtHqc6zzMjs/Ls1aeGE9RzgjqqNzIm3okkOrAWwamZ6UnREn6PHr2/cYUbdzfzbuvtpL66TX8f12oxxGZ4bUAMR+a8x9RZGzh9W49Wl8j9SBPtHGphQmZRi63d8XI0vloffHxStLri7u5CEb+UBSsNbh6uGBP0SXfMqOnQ+uDrk1ceyNNStENPSvb4lRnReyjaZTkldIdStyrnlm+Gc028c5Nov9oEpH7lQUCwj825WsDaWoC5HgU5MY7qyBX0HN2wlcDmr+CvATQlaN05lBnLVnGrRw+OLluDd/t5SXdS2N3uzGQroQ0gOOjRiy9dg4vhe/dy8o+9ppejj7xOVFB1ipvP2BRIVDvGeJWNvy7Cp+tcetUomH6hWOuDr29KB6HBvYAb+ig9JsB4J5J7AdUJSh1FXAguHsS9g7cwqAwtupqvMWXUh0z/qDPfntNQruWzvDZhFHUV24+eS2l8obUio6GvBR8o2hpgVxs3t4MCTRj93Xt8OH44HX6MxrNiezq3rcqx2z54a8Bw/BsmrW/AG0tr4mbxhUfuVGzZnYrJ/5UcOp2YPTWYsfIor9aqg868LWWzPtVxwV48vfE0PeDBQ0haaTDxIDYWPL3w1IApejkfPD+V2CF/seO5uhS8u5OZwwYz5IsSLHy9Fndnd6X5W/+QALg2+pyNc5/HyrWpdLgU9CegoD8BHUbwcGc4b35bk8WvV8ek4h/l8zcRaWbP2gn3FOVpPL0ooC1Cq6GvEBboATRlyDMNmT1zI+feCqNSip6EUyx4pR+zirzHzxNakPqKdKt9j5HI2V3S++aPPkTOVRuDEzmzZB7Haz3N1FIWFuKt2GE9J6K5+FsXuo9JG6N+dvmgtFK+eXRSbO+q+aOSL0q5fu8/tVxSiR2o9O/KMbGrH3KC+trmtm43doynOUW+9vdjgNYXP19dmn8DKBSVnJdp2phiDmr88S74gNgMMTfy4H4cnt6FnP3WKSfDhfLh9fGcs43DNx+w/24dni+rw80/ggpjt3P45gP2nqtERN3CGfya2bUK55qbCILgnFirn9Xmcc6NWi1RXmUepzbPy0Bm5dmrTw0nqOcEdVQvWuh8Ayh873aax/ANRN2+h7FY8nb/YAKCe/PJ+knUy/CDM7Hp/ks8/jXvfH6NvnM28UNIYXSGg3zRpi93AHDDzS0RQ+pFLSOx0bEYPbGIBhNyC0vmUIutcrwyxkBt/6xAXYelt7c7b1vRBnWgY6XxvL26AR+NK4aWRxctFHPLsBXzc9X5BlLo9lUijVBGB/CQyOtRGEvbIE8RMz0Kcgy7jjioIxcwnGDzNk8af1UqeWKjJbhND0KnLGb9WR/2bvCn7R/V0OFAu8sgWwFjJNdv6KF6Unesv36VO0UCkp6EMJOjCyiKz83zXNVDeRurINVjdKXo99Xb3P1wCMNmzOa7l+viZcOgr/MNoHDkZW4kpsg1cP3KDQoH+OPCA+X+XFOY6gOm8P2AKRjuHGLu670Z82UYq7sqtfkj/J7Wp1ZkrP/ALUPOK9sK9rTxDHagoWD1Z5m85Nmk7aabLHomnHL16uGtMXFnzxaOnT/AyEZ/ApAYF8XDhHdo3+QQUzZOobG5fI0LLi4aEg2G5NfAmbel7NWnNi7Yi654Zcp5zObkKT3UdQUSOPPfabwqDidQC8YrRzkZG84LT4Xh5wYENqB31yp8P38LV1+rTemnlnL0Kcd0p2AyGbhy4SKJhHJPxT8RiuevISCdPSYiZ3dT9ndAFSr4aXmY7scQzAzUn2HRKz352jian77qS6k0lZn1vsfcFkj8bzIvqI3BhkMsW3KB8GGdM77uSMEO5fHjKY4OTPt/+tpPq+ID1bHJanu3sK95/ijmC5is6rYhtq7KPgOU+/cUrMTEnn4oJ+ovNdTi7DD2jKc5RL72dx4jY41vw3zSeIMrVxNS8zLh6iVuFwnM8NSqYg6aIqlcPoo152Mwhfs+cr0plvNnIinbsmImXnH4eOJaoxHVH0xl68JYToe2pZoraAqHUdvve7YujOGYbwTDLFxsz9xahSAIgg0o1c9pyVCHOjeqNbrKPE5tuzmZlWevPjWcoZ4T1FENrUutzrQ0/sX8f25hBAwX5jF/46NHXl1q96VroUVM/XIjV+NMkBjH7ZOb+OdAxvdEmmLv87BAMcqULIwOI3e2/srKM8l3r7lUJqTcGXbsuE4ioL+4kPkbo6y8z7gIRQpFcflSTJ7oDJwVtdgqxstCDBT3zyLs1uHsbUUTQNuJS/ll7me0D0g/W7IntwBcanWiJUv44fdjPDAlErVrGrM2xTkszxpKcnRZpCMnSLy0nu36ZjSp8GgCpAlsR4faB1gw7mu2FOtGu+T39dvb7izJtorpHhu+/4ZD94wYo/fz67crKNymE1VcMspxqd2LTr7L+erztVx9aMKUcIuTe4+h9DvBthyjCWrD+N+nUGbRQIZ9dxBbXontUrsrrT2W8t0P+7iXmMi9A9/yv+XutO5YDxeV/txwah0r9lwk1gAu3v74e7uh1WpxVWg/BjNfWJOhsZDzirZaPDfb7QADVw5s4/SNe8RGnWX7/17hq/9aM7RfJXRo8Ov5Cxu3/8uyNVtZtmYz3z5bBfewt5m9eDzhrmC6f5C1f23n7I27xMZc5dCCt5mxwYdmrZJ+0yFjW8pefWrjgiVMhgQS4uPRG0yYjHrik/8GwLMpXdrpWTZjFqdiDdw/OpPvlrvSvkcj3AFdyZpU9drNsrn7uWsAw61dLFh6AK+KIVaLTyV9puidLP1jPf9dvMX9mBucXP0xXy6OplZELVxs8I99568uD9dwunUPYMv337L/dgKGW9v46dcdFGvekrI6wHCBZSN78Pm955g2tQ/FTQ+Jj4/HkNy92NP32LJvwp55/H27JV2f9Df7wXBlOzI1fqj4QFm2UntXb8/K+aKk+za+arFV8VlSUKz372oxsacfyur6SzGnHYyzo/rsGk9ziPzs7zyFpRrflvmkKYZ/fpjG/ruJGO/t4edvVlLELC9BpW/S+NGwRXVObN+V/hVDD3fx79EqNGvqPL+hl2coGEZ4yBkW/bSZ4mFheALoylCnVhRLftpAYt0GVLVQtGXlWoUgODv5pv/OY1ir1dTrUCdHrZZQmcepbieB7WNCqDtiBQm27J9pffaRE+uXQuZRvx5VoBGjZgwh9rO2dOncgWfeP0HlJiUfPerkWpNhP86gwakJ9KlbnFqhNejz2kwO3834SygutV/k9ZbHmNCmMX17dWXsOn9qp0xCtKXpNe5ltN+3pX271jw98TQVGxSzbKCuIh1faMPFCTWpE1KeIXOuSdHhCCqxVYyXhRjolPbPIhRtskQeaCsFStQholYpCphvsCO3kgQ1ZtTXI/D4rRONqlVjwDc6mrcphqtW55g8ayjJySod2Y6RyM0buN2wdfpJqiaAFp0jOLt1DyU7dUl+YsXedmdFtjVcKtC25X2+6hxCWHgfVhYbx9RX6+JqSY5rbYbPnEb9E+PpUbM4deo05+25x5Tf4WjjMbrgjrw/exLBc/rxyswjqP6ctkdDRn3/HiXWDqJVlZK0GrqC4mNm8VqDAqr9uen+URaPbU/z0BLUqdmSr2P68/GIhrhYbT+GDL6wKsNSzivZatFnttsBBq6sncDzLSpRr94TTNhchtdmT6NN8kVIrUcR/AODCAgMIiAwEN+CrmjcvfH1L5T0VKvxNod/G8Wg5pWpF1qPF/93lYaT5/J6Q08st6Xs1If6mJ8BA8emNqVGueIM/u0KN3/vSe1yxegwZX/yC3W8aTzuZ4YU+IWna5eg8aCF+I/+5ZHvC7blrW+H471kAC0rB1G7yWDW+Y1g6ttPZOwTbdGnMXBl1fu81D6UsNCaPPXBTkoM/53J/YqjtcU/dp6/qjw8qPXaz7xeZjWjGpWkdtNh7K72CdNH1sMVSLy8lN+Wn+PmlvH0qBpEaLkgQsuVYODPFzFiX9+jvu8Ddv65lPgn+tKscPrlNDU7Mte3K/tAWbZye1dtz2rHK+hWi62qz0Chf1ePiT39kN21kSJqOe1gnB3SZ+d4mkPkX3/nMSyN97bMJ10q0L51PDO6VCGsfn/WlHzXLC+TUeybtBTrPIjqexay+V7q7VtE/7OQ3dUG0qmUszwXlIfQFqNOeEnuRXlTq27R5Ji5UTW8Ng9v3adq/TA8LB2XhWsVguDc5KP+O0+hUKup1qHOjlotoTKPU9tuus/163qq1Um5iJNJearb7SNr6zkhu9AkJCSYANzc3Dh15V5u2yNkAwFeJiJj5X6fnCb3/R7N8iE1mRuxlVnPFnea1yrkNBbjYLrFosEt2TXoXya3dGyQs0pWyc5OG/MazuKLnLbDWc5bEATn4XHqF3L5XHO/jhMgi+Ng2MrEpmMoNPMfXrV0275dxHPksw5M9v6WX4dWRJd4ll/7P8etMSsZXdvi8vpjj+TU44HE2bmQeDgfj01MHq5hbLdVtF84lUZeuWfGY+PvfIoT3bckCELmMHJ9zwYiSzclNABubfmMn7dXoO2bwY/tBQurGO/j02gsT9XPhkWQrJKdnTbmNZzFFzlth7OctyAIzsPj1C88Tucq5EHcCX19HbNT/tWV4+l5G3PTIEEQBEFwHjye5KOVT+a2FUIeR560eAzI7SuLxku/8ErfzzhqMNvgUosX586ib8n8uaSe835P5NzvzzL8s03cjDei86lBh9e/4K1uFR16x19+IbfbvyAIgiA4E47WZTl9XG6TVfWD+DtzOO+TFoK9SE3+eCBxdi4kHs6HxCRnEX/nbeSixWOAJGnuIH53DiQOgiAIgiDYi9QPzoHEIf8gsXw8kDg7FxIP50NikrOIv/M2Gkj6XeJmzZqxYsUK9Hp9LpskCIIgCIIgCIIgCIIgCIIgCMLjiEtCQgIAY8eOxdMzr/zKvWAP9+7do3DhwrltxmOH+N05kDgIgiAIgmAvUj84BxKH/IPE8vFA4uxcSDycD4lJziL+ztukvtR0ypQpuWmHIAiCIAiCIAiCIAiCIAiCIAiPOXnrl9gEQRAEQRAEQRAEQRAEQRAEQci3OHDRQs+ON0Ko9vZuDLbsffJXnq5dDF+fQJ6ccQ6j/QqTBe3kzSpVeWuXLVoFx7AvtoIg2Eja/ivd35sYUb427x3MgoyzpkPxGAX9WWmbkIfJOC5k2bieJ5Bx0REerzZiBWfpQx0ZGwTHEX/nbeyKWQL7329Ii89OkAiQeIovWoYzdnd8NhspKMdJxm1BEAQhk0g95zRk85MWerbPeJ+9T/zJlaibrHm5bNYo1G/jtUrSaHKVvBIDZ7Qz8TAf1HZD69GIz08nPvreeJ7pzQugda3G2L05aO+92XQpoEGjsfQpQNffY3LOllzAeGEaLSuPZEtCDsnWlaXr+HF0LWN7b2i3jQ7oyCuo+iKHcj6tHbGHfmJok7L4FCiAb4WWjJh3CktLFolnvuaJIlo82v/ELVPKt3eZ1blAurzTBQ9hjdn55bQ+65iP68XY81U/WtUuQxE3F4q9tA5zUaZ7u/iqf12Ke3tSqGR9nvnuAPfTbL9/4Aeeb1IO3wLuePpX5olX53LS6ppPPLuU9Bkvs/DlZoSW8qeguwdFSoXRZ9IGblhYNbfsH8exLi+Wo7+NoHVIIF4eBQkKac0nu/RJm+IO8tOwjtQr7YOHmxdB1doyev5Ji/HMFLFz6ZGhn3eh7Mgt6LPcDku1n4IP1ExXbO/q7dnWfFHCYmwz6zO1mNhAtoxfDtulkpsO+0tFbjLZOZZnK3nU305BLtf4psiFfPx7GYY9VwkdgK4Cg1+uxPyP5nI9C8aUx4dEjk8Op3CHn4lM8ZthL2OrueKZ4Tsfes69l6/rXEGwTh7qn/MLqmN0ZudVzoByja42j1Pbbk5m5dmrT8j7ZPNIn8C1K3coUbkCHtmrSBAykphIovpeuYQL5UrfYv6846k2Jp6ez9zLpSlfwAFxmTnXwv1ZeDeOuLg44qJXMqR4UZ77+17S/3F3WdDPO2v0OCUmItet4XzTttRzyyKRqT6yIlsbRMP+/WkQaGv364CNduvIK2RDvMyxqY2nsSNxM+N6vs7hpj9w6NYtDn3fmP0j+jBpv9lyk/EKv7/xHQ9Dy+OSQZ4b7X64mpxzcTy48A1PpDu/nNanhPm4rqFAiUYM+uBnpvQKtlBURLPmzT5MvjuI5ZeiOL+oB5fH92bcpgdJmw0H+fyZkeyo8RUH7jwgctdHlF41hCHfWbs7X0WfxpvqAyYzb/MRLt64wsEFz2H6fgCv/xVth38cwKo8I9fmPUe7cedoPW0zZ66cYcfsN2kWlGS56eE1bhfpxAd/7uLspWMsedWXpc/25dPDWdzTevVmbko/HxdH3PU59AooRaduYbhmuR3mbUTZB4rE2dLeFdqzTcerYCW2mfaZSkzUyab+0GG7lHPTcX+p9TGQI2NDdpEn/S2AkUvzfuTfBn1p56NJ/k5DkTb9aLLvJ/4491g+X+YgOso3boT/3i3sepj0jfHaDnbGV6DUsfTfbb9YnSYR3vm4zhUEJaR/znFsGqMzM6/KbdRqdJV5nOp2czIrz159Qn7Ahr7ORMzeGfSrFUxhn2KEdv6YLbfT3z6iv/g347vUoFiRghQKrkGPSZuINEYx/5lajFgVw+a361K2Qlu+OHaDNe91om7ZAAoXLERQaEfGr7qatDARv5j+vi2YcSmlyNOzdVRFao7fZ/ZoZzx/jxjAj+dP813XCpQpU4l+s64jN7Q4gkpsTbesxMtKDKzur4B+EyPK12T4VxPoVCUA70KlaPrG31w6t5jXWlTAt2Bhyrb5kC13TSo2pciqznMfvUHniFqE1B3FJy87a1txoWa/nhgXzCXpzRGJHJs7n9ju/ajnpkndy2JumbBwrq/zT4KJ6N3T6FszmCK+xQnt8j6fPls5/WtdLMrT4urugYeHBx7ubug0GnSuyf/rdjK6orkeBbuUbHZGTPfYuOoIDdpFcPGTCAJ7zSMq1dZ4toysSPkRm4i3q90l+eiR7Eakuw6V4fFCIzfWvku7KkXxKVKcsGdmcjjtuGsmJ+H8MsZ2qUXxIt4U8i9D+PNzOG+eZGY6bDoGE3d3fEyr8mGMWnk9OW+N3Nn6Kd2rB+FdMJCaA77nyMNHR8Qe+YUXm5bDz9sbv7JNGPLzYWJBvT83XmHF222pEuRDER8/ilZqwUf/Ji0iKraftL6wKOO+1fHBqq1W4merHa5HVrDyRktGjHmCkl5elGj5FqNanue333aluUvWxK2l7/A5o/iggy+PMjyFpJxz90jKO3d3l/SDc47qUxgXTBbG9f90VO/xMk93akxFX10GTcRuZPZiF/qPfYnaRdzxDXuVsb0TmP/bZh4CGK9x6XowT/ZrS6kCOrzKdWZAq8KcPXHeymsd3JT1aQpTuUEDqpUJxreIH8XLVaCoZzSXLt5NMxYp+Ue95smIgjzDEb6btJ56H//EG0+GEOwXRLl6rYkonWS7xqctb3w8lPb1KlIsqDQNnh3DwAqn2HMg+Z4he8ZVxX3T9PMe7sSsncd6v9481dDDNjuwsW+31EaOHFL0gZJsg03t3Xp7tuV45fOyHltbfKbcvyvHRNW2tP2hI/WXVdTtsoxybtrmL/vlAtbH2+zicfe3U2BlLqJWf+g3MaJcKE+/O4JOzRoRVjWECPO6Kw1Wc9B0i3Ur91OjRSO80h7g2ZAWtQ+zcu0NJ5lv5A1cazWhfuIOthxJGvnv79zK+cYjeb7CnjTfbeFQycY0KqE1q3MdXKuQAAl5jrzSP+cnbBmjVeZxzozKPEV1Hqe23ZzMyrNXnxpZWs8J2YV6PsVtYXy/D7nz9Cou3b7IhpEP+HPhxUeB1B/kkx7PsSH0C/bciObGjokE/TGQVxYa6PXLfr580ptmk/dy7vQqRlXR4lntOWbuuMCd6KtseqMQvw9+k6X37DHZnQ7Tfue5MhUYuuQ058+f5I9BwRYWZQRV1GKLyUq8rMXA2v4qdhhOsXhtId7bfo1bBz8gcM7ztHj6L2p8s5/IG9t42fAlb35/KvXudUUdhhOs3FeVLzYd4PiBr3hnhvO2FZeqfehdcDF/7E4A/T7mLNTRq1+NR1ftreXWgsikiVC6c51KK8NmxvefzP0X1nLp1kX+eSORvxbbkKsp8qxhrkejIMdRHbnFg82s3FObts0KU7FnbyptmseKO8mWPtzOvGVauvZtgLtd7W4qrdzSyi6obIPhBAv+LsB72y5z+9xiul14h/4f7X70uG9aOQl7+ajbs6yt8CHbrkZz9/Iufny2OgWVGrVNxxi5uW4M7QasovHPq5naLvnuHcNJFv6l5fUNl4k6P5/WR8fw1pzkiXjcVt7t+QYn2vzOyagoTv3RjtNv9WTcljhVt+t3fM7IpeX44nAkd6NucGL1J3QqqVNvo2l8YVmGp+W+Sc1We9q4eUxMFlq2xsjVo8dIaUqme+uZ8P4Vnv1kAMUtjroJbBsfTuniZajWdAATV1xI/1qQnNSnNC5ofOidYVxXnjQlXjzG8bgQalZLueXIjao1KxPz3zGuGgG3xjz7YjF2zV3NxYdGHpz7izkbXXiibU0b7za3hJ7t79ShWJAfRYo9yUxDH17uXiK14FH0j+q4mBEleaZbO9h+piz+J0ZTv2RhvP3K03ToLxyJtSzLeGM3uy6XpWZoyjKYPeOqjfsar7Bo1kZK9RtAXStOzmCHrX27hTYy0v9fZR8oybahvSu2Z7XjVc5LPZcUfAbq/XvqwRZiYkd/aF87sQMb2orDoi35y1FsHW+zjMfc305BJuaDiSdYfaQuM9ZtY/ehNbwcO5EBlvJSKQcNJzh03JeKFQql16kpSMXKgZw49J/Nr3kTAK8Imta6wrZtlzGSwP4t+6nStBMt6uv4N/W7f3Fr0IRQ88cjHV2rcNa5iSAIzonVMVplHufEqM1T1OZxqvM8MzIrz159Nngge+o5IUtRvWih37WQpQk9GDOsFoW0LgS2fJtXn0hzF9ie35h1rTPvjm9FMXctBcp2ZvzwENYv2kyGm1Y0ATTu3ZXawZ7otAUJGTCKPn672Xo0r6R1/kIttnbHy9H4agPo9trL1PNxwb1sD7qH38er5UiequKNzqsqPTtX4+TBY0l3SKnp0AbTdfgAyrsDTnN5wgq6CvTqHchff2zn3s45LPHpQ9/Kjypx1dwyO1f97j9ZZuzFm0Oq463V4d/4dUY86Wm7PGuY61GQc89RHblE/M5VbKvUhla+GrRlu9O76hbmLU+axMRtnstfHt3oE+bmULtLK1sRTRE6jR5NhK8OrU84o97szJ3Fi0j57da0cvS7ZvN7ZDc+mNiRMp4atB6BVG9YHX8FFarHmPRcWjyMJ4cepOf8v5nQNM3dxNpAur0xioYBrrj4N6Z/xxKcOHgCA6DfNZ9FD3oydnQD/Fxc8I0YzbheD1k0b6dqoaZxc8Ml5iKHDp/ljt6FQmXDqVFMq9pG0/rCmgzLPlCx1Y42bm6HS2gbnvDfwIzPNnE9Pp7rmz/nq5UxGO/HEJu0ssi/k8ewp9unvFjR0gJ/Aeq+9DPzFy/nn38WMaXzQ37p24kJux69eTwn9amOC3Ziio0hVuOFV+rtzxq8CnpB7P1ke70IadODYmv7UMbLFe/yT7Oj6VQmtrf0hIituBL29mr27dvFxj8mMrhTEyoVTmkbyv6x//yV5Rnv3iEqfi9/bq3EZ7uuE3n4exruH0nviTszLpDFHWb64Pc43+9zRtVKHgvsGVdt3Nd4bgGzd4byVP+qWLzkZMEOh8cPG3ygJDtBtb0rt2e1fFE+L7VcUokdqPbvSjGxpx/Krvpata04ijV/OYjN421W8Zj7O8+jCaTzi30p7Qq4lKL3ix24tyRjXirmoDGaezGeFPQyb3NaCnp7EnM3WhbE7UETSMPG5Ti6ZQfRhtNs3eVDw4ggqjWuy6Wtyd9tv0u9puG4mx2apWsVgiAIVrA8RqvP45wZtRpdbR6nPs9LT2bl2atPFVmfzhOoVq6Jt24SVbQuJVL39KJUaf/Uqx2J1y5z9c4GXqq1mdRXtyXE4FYrhvsZXhsQzd6ZYxj77RqORerR6gxE3zDR26EWJmQWtdjaHS9H46v1xd8vRasbHh4u+AX4Jtuhwd3DjcSEhKQ7ZtR0aH0J8MsrD+Tp3gbavgAAIABJREFUKNWjL2Wbz+SDu/9Ssu8GyuoOpG5Vzi3/DOeaeOsGUYH1KJo6ihagaDFfm3M1w7wrBXM9CnKirzqoI1fQs2/lPxRrM5pgDaApRbc+NZk4fzk3BvZh37wVFO6xjDquONDuzGQroQ2kRLFHL750LVaCgDsXuWXMKCfhxjVuFa1JafMZmwKJascYr7D8m/n491vKc3W90y8Ua30J8E9pUBo8CriTcDsBE2C8dZM7QTUpnnqniQslSgUTtScSg8o98i71xjDr3fG8/9YTfHxaQ0i7oXw0dQyNFNuonrNpfKG1IqOVvwUfKNoaZFcbN7cDzxZ8vOBjRo54lurT7lGwSmf6d63O/khfCmtAf/hLRq9ozORtdXC3+GsZ7lRr14dqyf+VGz2Tu9vLMXHxId4PD8PFvC1lsz7VccFONF7eeJliiY2DpJUGE7H3Y8GrIF4aMN1dwojuk4h5bT3XR4RT6M42pvTvQ6cPSrLz/brc+e5Jyry4jnjAreXXnF07TPWOdwBX7wCCvQMI7vkGDzZX5ekptdn9fi1MKv5RPn8T183sOTn1rqI8jVdBvLQ+dHrtdZoW9QBa8tbwJnz91VpOfhRBaEp6xZ/gx6e6MN13Equntib1FelW+x4j179rnd43a57i+k9qY3Ai//0xm0PhzzOnnIVlUSt2WM+JaM7+rzVhL6WN0SC7fFBBKd8KdFds76r5o5IvSrkedUgtl1RiByr9u3JM7OqHsqW+VmkrjqLkL4ewY7zNKh5rf+cDtH4E+j/ysdY/EJ/byXmZxj+KOagJpLD3A+5niLmR+zEPKFi4kLPfOuVkuBDSuCEFZ25m97UH7LgTxusVdLgHNqbqy1vYfe0BW0+F0KJBkQx+zexahXPNTQRBcE6sjdFq8zjnRq1Gr6Iyj1Ob52XUlzl59upTRdan8wSqeaTzD8Q3KpLbRki60UzPrci7GEsmbw8sSnDxAfx86AuaZPjBmfTvTTUc/oLnJ1xhyOo9LA8tgothH+NqdyYSADfc3AzoUy9qGYm5dx+jlSe9NZiQW1gyh1psleOVMQZq+2cF6josvb3deduKtlhX+lV9k2eXNuaHKSXQ8uiihWJu6Tdhfq46/yB8bl7mWmJKPOO4dvUOxnI2yFPETI+CHP3Wgw7qyAUMx1i1wYvWs8okT2y0lOjSh7rvzmfZSV+2rgyg5+oauOBAu8sgWwHjTS5fTYA6yXc0X71MpG8Q/tqMcnRBxfC/fo6LCVDFxhd3qx6jK8PQWRO48+Yguk3+k2VjwvG2YdDX+Qfie+MSVw2Q9IYgA5cvXscnKAAXHij355oi1HthOn+9MB39rf18/3xHBn8YwX/9FNqo4SDfpPWpFRmnv3TPkPPKtoI9bTyDHWgoVOdFftr6YtJ20w1+6VyVyg3rU0RjInL7P+w/vZe+FeYCkPjgDg8SXiO08n5mHZnOk+byNS64umowGAzJr4Ezb0vZq09tXLAXXamqhBT4mcP/6aGBK5DAf4dO4l1lFMW0kHjxEEfuN+CNoREEugNFG/NCv1A+/eUfLr5XjwpD1/JwqGO6UzCZDJw/c4FEahK1Xdk/LRTPX0NwOntMXP+ujbK/g6pRNUBLXLofQzAzMOEUvw5sz4fGt1n560DKp7nmZ73vMbcFDIfep6PaGKzfz+9/nKPZmz0oYd45KdihPH4M5uGLaf9PX/tpVXygOjZZbe8W9jXPH8V8AaNV3TbE1k3ZZ4By/56ClZjY0w9lS/2l1FYcRc1fjmDPeJtFPNb+djIy1vg2zCeN17lwKT41LxMuXeCGb3BSXqatHZRy0HST6pXvsPh0NKbGfo+6NNN9Tp24SeV2IZl4xeHjiVvdpoTFTmbtrPscq92ROm6g8YmgQcAM1s6KZn9AI8aVzXhBL3NrFYIgCDZg6xidoQ51blRrdJV5nNp2czIrz159auTE+qWQeVRD6xrWg07GxcxcHYkR0J+ZzQ+r7qUmoWv4QAYWnse4D9dy8YEJEuO4eWw9K3ZnfE+k6X4MDzxLUKlMEVwwErl+JgtPJt+95lqFmpVOseGfqyQCCef+4IeVdywnu9YHv8J3OHdeHr3NDGqxVYyXhRgo7p9F2K3D2duKJpCe09aydu0MegelX4GxJ7cAXMO60VGzgCk/HOG+KZFbWz9j2poHDsuzhpIclyzSkRMknlvDuoSWtAl5NAHSFO1Mn/p7mfnKVFaX6EWvqknb7G13lmRbxXSX5V98ya4oI8a7e/hqyjJ8unSjpktGOa7h/envv5j3JqzkYpwJU3wkR3Yc4ZaCc205Rlu0A9NWTqfi7J50/3wfaj/TmSS3F10LLGTSl7uJSkwkaveXfLzAnW696uOq0p/r/1vF/O3niTGAa6FAggq7o9PqcFNoPwYzX1iTobGQ84q2Wjw32+0AA+d3bebY1bvE3D7N+s+e571D7RjzXAg6NAQOmse5M0c5cOAABw7sY8mIUAo0msDGLR/SzA1MMftYMn8Lx69GEXPvMrt/HcUHK3xp1z7p920ytqXs1ac2LljCZEgg/uFDEgwmTIl6Hj6MJ8GQfIRXC57qpmfO5JkcvW8g+sA3TF7gSu+BTfEAXMrWoZb3Tn7/cQ+3DaC/uYMf5+7Fu0pVilqpUJT0me5uY/aPqzlwLpLo6OscWfoe4+fcI6JZHVxt8I99568uD7eGDBoQyKovvmRHZAL6m5v5/NutlGrzJJV0gP4cvz/TjneiXmL+TwMpY3rIw4fx6JO7F3v6Hlv2jd8xm3mRTzKwc0D6aycqdmRq/FDxgbJspfau3p6V80VJ9y0C1GKr4rPkBmm1f1eLiT39UHbUX1bbigKKfYEt/nJArl3jbRbxOPvbqbBU49synzRF8/cXn7HjTiLGqH+Z+ulf+JnlJaj0TRp/nmhXi0P/7Ej/iqG4HfxzoBrtWjvPb+jlGQpF0DT0JL9M30DpRhEUBNCVo2HYHWZNX0NiRBNqWSjasnKtQhCcnTzTP+czrI3R/2/vvMObKtcA/kvSlraMbvZeLbtlWQpShqyyhwheQRBEZQmoDAFBkaFVBERQwIsIeFEZggjIXiJ7yUZQ9iirLS0dab77RwdtmpyTtGma0u/3PD6PJcn7vefdZ6vPoQ6O2n6Kyn6c6ucksPWtUnj1WUe8Jd/P9nrWYY/jlxIbkJCQIBISEgQgTGMQkQdmiZ51/UXtRqGiWecRYuxLlUX1sQdFYso3Eq9uEJO71xOlvQqJwp7FROXnuonJm24Lg4gWy7t4iLaL7gqDEELor4hVw54XVasEisbNW4rOQz8Q/WqXFoM2xyev8+enolONCiKgXiPRtNs4MbFXRVFrwpHkdRL+FO8FVBOjDyQKIfTi0vL+om5JT1HEw090WHgjWb7EJI8ePTLziYpvFf1lwgeK3zdDwk4xrGKg+OB4ajTFiVW9PEXzuddEUoqOt75+QXj0+FHEqumUSZYwrWf2zGkxZu2uPyk+DCwseq6My/xZ3DrRx6eGeP9w8jaYzS2T22oQj/bPFC/W9BNFvEqKGh0ni+mvVha1xh+xIFdTiN8m3ipd8qnPTK6jLEd1DTtj2g9J4tpXL4jKQ3eIjNFpEHe/7yyKaFxEcPgFoU/9Z6vizoTs9PUrw//vFMMq1hZvhI8TbQOKC0+P4qJun6/F8cfmdYy/vEaMaV9DFCtcSBTxKScaDvxB/JOksIbibzLqnnjlZ9HPv4xoO+u4iMm0XXpx+uP6osybW9L0iT6xSAxsXE54FSokvMqFiAELj4voFDsq1fP4/Z+K9kHlhE+RIsLDq6So3Xmy2HIrOeNNx89NcdXIFuZlmM55s7paFeOZ9RDiidg5sZEo7+UqnN18hX+r4WLp6RjTwSj04tyMhqJQu29FREpCGB7+Lt5vUV2U8nQVzs6FRPGabcWIZadFjNk4zcn1Unyn2PON+rpIFEcm1BBOydenpvznJPzTzQiGR/vFrF5BokQhN1G4VAPRd/7RlDhJXu/urk9ErwZlhIebq3DzLCPq95wmtt9JMrNNyusZIneIKR3qivI+7sLZ2V34Vm4i+nyyXdwyKS6zfSyZecxjSp4QIvaU+G5QE1HOw1W4eVUQTd9cIlJdpr8YLoKd028LAlzE87P+Se6B1vRV1e8+FhsHlhYl+69PZ38L9RDW1HbjGFG2gbJs5XhXj2f1fLFsuzL7VtVmivU9FfM+Ma+biTqk2KPM9wbzKOtlGuXctCTGrJdrrpfbBvNzXH61d+5gfj/GVL9X259Mzss3PzOTl0Y+U6oPhjvLRLcqL4uVD1KrhUE8XP2KqNxpsbgpd0xNYt6XQgiRKA6NCxBOTgFi7MGn0Rb544uiiMZVtPrm1tO6nMFP2TlWIckJlP0syTpZq8/SH9nFfI9Wn0NN41A+UZnRlffjVD433BPfdfQTLeY+nT2yJc+Cz01hv3lOkhNoUk5Y4OLighDyLO2zSGRkJB4eHrmtRr4j9+0eyYoelfgm9BjbhpWx22MTHA2TfhARfNf5OXa/eYr/hrmb/mFWsZXsnNQxr+EotrC3Ho6y3RKJxHGQdeEpOWyL3J/jJGBjPyTuYnjACLxWH+JD41srrCaeI5Oa8W6R79j6jj+6pL+Z3eZl7kzdzbTnsnLN57OPzKn8gfSzYyH94XjkG5882cDrz6+n5855tDLz2H97kG/s/Yzi6O+GkUgkFmPg+r7N3K7UgnrF4PbWqczcWZUeH5fMtycszGKIxrfFRwxpmgMHfGwlOyd1zGs4ii3srYejbLdEInEcZF14irSFJFcpQL0P/2RH6p+6yry99WBuKiSRSCQSiePgFsbCw2G5rYUkjyPvtMgH5PaZRcO/C+jRahpHE40+cK7L+1tWMqj8s3lI3f52T+L8wt50n7SNm3EGnHyCeOnD+YS/7J+lZ/w9K+R2/EskEolE4khkdS7LqXnOUedEW80P0t7Zw3HvtJBYi5zJ8wfSz46F9IfjIX1iX6S98zbypEU+QCZp7iDt7hhIP0gkEolEIrEWOT84BtIPzw7Sl/kD6WfHQvrD8ZA+sS/S3nkbDckv8SE0NJQNGzaQmGh82Y1EIpFIJBKJRCKRSCQSiUQikUgkEknO45SQkADA+PHjuflIT/J5DMmzhF9BQUSM9Ku9kXZ3DKQfJBKJRCKRWIucHxwD6YdnB+nL/IH0s2Mh/eF4SJ/YF2nvvE3aQ0vDw8NzUw+JRCKRSCQSiUQikUgkEolEIpFIJPkcx3rTmkQikUgkEolEIpFIJBKJRCKRSCSSfEsWTlokcmxKfdpNP0qSBd/WX/6B0a39qV+tEv0WX8Fg/YIpgg7xSWhDPj2uz6oEiSrW+VYikVhI+vqV4f/3MiWkCbPP2KCumVtD8TcK69tSN0keJnNfsFlfzxPIvpgV8leMmMFRamhWeoMk60h7522s8lkCZ2a24pWvLyb3h6RLLH6xOTOPx+ewkhKJRCKRSHIUOc85DDl8p0UiRxfP4NTzS9l79hLf9S9nmwX1+5nWRAZNrpJXfOCIeiadZm5rX6pWaM23/6Y7DGa4yvc9ilG13HPMPGlHfaN/5M2KHlQpZeq/Yry1+rH9dMkFDNe/ps/zYzmcaCfZ2nK0GvEerUpbXg2t1jELa+QVVG1hp5xPr8eTs0uZ2LUW9SoWo35IB6asu0SCid8kXVnIqwGe1OizlIci9V8jWdOvWIa88w8czl6j7bP3euYx7uvFObXoNfq2rkndct6EjN2JsSgRfYQlQ5rSuGpxAuu3YMyyv4hN93ns6SW837U29Sv6UatmPV79YBX/mNogAOI5qbSe4SabxocR1qACtcsXpW6DZrz95W7umThqbto+Wce8vFgurhzNq00rUbtCCYKbdmbB8RSt406xclxPujYsS41yxQlu3o3pv/5t0p/ZInYVQzLVeW+aTdqH3uZ6mJr9FGyggnK8q8ezpfmihEnfZtdmaj6xgJzpX7bLMfvIVa8xkLO9Pns8m/a2C7k844v7a5m/uiz/6V0ZHYCuIt37V2bDnFVE2KCn5D+e8M+Gj3m7UyDPVSlKDX9/wnoNZ/G+W3njogFH3OeUPGOo1HVJDpBzvdQxUI8ptZ5v7UyQXXkOM4NI7EaOn7S4e/shxStVpEDOLiSRZCYpyYGHXCfKlL7PhnUX0nRM+nc1v90sQ1nXLIjLzrYWfpG55+5w6vIdTp1fRa/ixXlx6fXkvy9f5csuhWyzjkMieLBnO9eDX6Cms41EptnIjGxtUep2fZEgX0vLbxZ0tHqNvEIO+MsYi2I8nR5JfzDz9QmcD/6S9af+YX14I85M7MfXp4zPOtxk3ZTFxAdUSD64kQFnQsPPp+TcHf46OJOQDNtn7/WUMO7rGgqUCKbLe/MZ07GYiaEimr0f9+ObqN4sPHyFXYs6cfvTV5n555Pkj/Wn+HbEGI5V+4R1Z25z8LcPKLljOBOWmrs6X2U9TSH8u01m9ur97Dl5jl8X9EUsH8iMLdFW2CcLmJVnIGLdEAZ8eoUmUzay7egJfv5yBA1TclPE3+aRRzveXriDHYcPMX+AF1tH9WfhORtXWveuzE6t85fvcOr4t7TzKU3LtnVxsrkexjGibANF4iyJd4V4tuj3KpjxbbZtpuITdXKqHtoox+wmV6XGAHbpHVnmWbR3fsDArXXfc6Jed0I9Ul/uqaFIsx7U/2sZ66/mmSNWDoKef5f1offonfj2XcDqQ1c4fHArM/qU4eRvu3kkTwJJJKjP3BLbk1O91FHI5n6c1TNBduXJGSQ/YkGtE8ScXMDIVlUIquZPWL/POWx0SaL+xu/M6h9CSEAJAgNDGPLlXh4YHrFhRGOm7HjMoelNaR7SjcUX7rL3s5foElyRoCqlCG7Rk1k7biUfmEj4lZHV27P0ZuqQl8jhyUF0/PSE0QGkBHZOGMjP1y6zon8gzZ6ry8iVd5CzTFZQ8a24b8Zf8aZ9YPb7Cuj3MiUkhMmLpjMotCJ1/KvTe8rv3Lr6K9N6BFK/SmmavRzO4SiholOqrEaMmzORNzo0pnXbcSx431FjRUdAl86IX1dxTg+QxN9r1xAb1oNazpq0b5nMLYGJbZ3AgUTB4+NfM+KFKtStHkBY/xksHFUv42NdTMrT4uTiSoECrhQo4IJWo0HnVCD5b90hpjcxXkdBLyWdHRERxf4dZwhq3oBbX7XkuUGriUzTNZ7Dk4JoMXEvCVbFXbKNnsoOJsN5qEy3Fxq4t3sqA0KrUi8ggG4jlnA+w7GWjHISr21gZv/GNA4oSWDNmnR/92duGCeZ0RoW/QZB1JHP6RvSjKnb76TkrYHIg7MZ0rIydapUouPQ77iQ7qkHT84tZ2K32tSvWpL6wW2Z8ONpnoB6PTfcZOf0brSpU5a61coT0qQ9844lH0RUjJ/0tjApI8ZsfzCrqxn/WaqH87nN7LrXlL5DmlHC3Z3ijUfSv/FVfll5JN3V0oKHv3/EfxnM2y29eJrhqWjQOrviUiA5D11cnDI2Z7uup9AXhIm+flGHf/tBdGsVTHlPEyNF7G7WbnSi4/ABVC9SAI/At3irYwIbVv1BPIC4za2IYjTp8gIlXXW4lWtHpyZFuHbpqpmTRy7K62mKUKFeQ6qUKYZHEW+Kl62In1sUt25EputFSvZRn3kyoyBPf5b/fbmLWmO/YmBoVfy8ilKmTnMCSycf/tZ4vMDAsf1pVqcSRf3KENRrFF3KX+KvUzEpoq3oq4rfTV/nCxCzezX7vLrSuYGrZXpgYW03FSPnTinaQEl2kkXxbj6eLfm98naZ960lNlOu78o+UdUtfT3MyvxlFlvkmB3lqtUYMN+Ps4q0t7K97YKZfRG1+UO/lymNghkdPppB3VvTrVl9ehjPXekwm4PiPvu2n8S/cTBu6X/g9hzBNU+za89dB9nfyCNEb2be50ep9+FyJvRoSClPN9w8ylC7/Xt8MbUnPhq1Oc6KfUm1GFDJb9MztZl4tL8lJc80KnVdkgPkVI92FFS2T63nWzsTZFeerWcQm85zkpxCvdrF7eOLweE86rmaPadPs/T1J2z67fpTR+pPseD1ofwZMJ1fTt5g/7rx+P4yiI9+09Nu1l4mhBai4fu72bFvNf2raHH178O0dac5fP4CP7xVmLWjPmCrVSciXWj28SJeLFORXouPs/PAUb7oUczEQRmJKmq+RZjxVwEzPjD3fRU99JfZvLsww9Zd4NCW8fisGcYrIzYRMH0vB05spo9+Hp8su5R29briGvqL7PrLn/Gr/2Dzlk94a5rjxopT1e6EFVzP+hMJoD/Br+t1tOtS4+kVluZya/295CE4w7ZOI0T/B18M+YKY//zCnlOnWf5WEts3WpCrqfLMYbyORkFOVtfILZ78we6TdWjaqAjlOnSlwv7V7Eq9nCv+IL9t1tKqc0NcrIq7aclX+abJLqisg/5vNm51Y9jasxw6sJxW1z9i1JyjT2/NTC8n8TjzBgzhj/IT+enYDY4e2cG0XtVxVwpqi35j4P6eyQwYupV6M9fwfouUKy30l9i0RcuAn85y9MASGp+fRPialB3xuD+ZNWgi/zRbxNYzV9k2rxVXpvZl5gH1Kx30R+Yy9ffyjN92maNn/2bzDx/RoqROPUbT2cK0DDfTtUlNV2ti3NgnptAYuHvhfNqVgSJ6F3Nm3qTH+J4UN9l1Ezn6aXNC69akXbeBfLX9WsbHw9hzPaW+oPEkLFNfV75PIenGeS7HVSXA3yXlX1yoXL0KMRfPcdcAODeiR58SnFy7jZvxBp5c3cSv+5wIaV7TwqvNzWzfjOcJqVOeoLpd+FnfnT5hJdMGHkX7qPbFzCjJEw8OcvRKObwujadH/dLUqVGH3mOWc8HMfcyGe0c4eas8AQHuqRKs6KsWftdwi80rd1OyS09qmDFyJj0sre0mYqSf9xFlG1jbN4ziXTV/lH6vsrZ6LinYDNTre9qPTfjEinpoXZzYAuUcs6dc1RoDlvdji5H2VrS3XTC3L2IBSRfZcz6QST9uZvXWX+gT+ynvmMpLpRxMusi5S16UL18445qagpSv5Mc/Zy5Y/Jg3CehP7+JgbCPatjblQ436zGnVviQqMaCQ32Zn6mzEo0QiyePkVI/OfdR6vrUzQXbl2X4Gsfc8J8kKqrmkP7aWrYmdeOPVWhTSOuHTeBT9nn/6sCf9iRWsudOOoSNCKeqixbVsGEP7V2Xfhn3EGQvT+FK/YweqF3VDpy1Ixa5DaO91lCPn5dP4cgM131rtr6z6V+tD6zcGUcvDCZeynWkT9Bj3xoPpXKUQOvcA2rauxj9nziUPmmpraIvSql9PyroAjj4qaivSrqMv2345SPSRn9ni2Y0OlZ4eQVLNLaNt1R9fxzbRhUGv1KCgVodXw+H0DXWzXJ5ZPY3WUZDzOKtr5BIJR7dypGJLQjw1aMt0IqzqPn7bmnxAKG7/SrYX6ED7QJcsxV162YpoPGj55jACPXVoPerRf3AYjzau46w+s476Yz+y7n5H3h7dllJuGrQF/PCvXwMvhSVUfyP03Nr4Dv3G/EXbr39meHC6q4m1vrR6azB1fZzReQfT8YVSXD6T/MJJ/bE1/P6kM4PfaIinkxMedYcyuEMcm9cdVt1R1zg7o3t8nfPn/iVS70ShsvUIKKZVjdH0tjAnw7QNVHS1IsaN9dD5t6Sx926Wfb2XiIR4IvZ/yXfbH2OIieZJ8pFFTsydxF/tptC7gqkD/K7U7DuPOd/+xPJVyxnTOp5Vb73EnHQv8rTneqp9wVpio4nVuOOednmzBveCBSE2hlgB4E6lZp0oursfzSr7EBjyBseCpzGyhak7RCzFmdpD17D29x0smzeB7q0aUb5wamwo28f67VeWZ4h6SFT8cTYdrMzYDRc5uH0OdU+NZfisQ5kPkMWdZunI6VzvMpX+qUeuremrFn7XcG0Na49Wp3PXANOPxjKhR5b7hwU2UJKdqBrvyvGsli/K26WWSyq+A9X6ruQTa+qQ/edrpRyzs1zVGmNFP7YUaW9Fezs8Gj9a9ulOKSfAqTRhfdsQvSlzXirmoCGa6MfuFMx01YgW90JuxERFOebFOg6KIfIBUW4+eJm5FUp9jrNiXxKUY0Ahv7Myh0skkmednOrRDoBaz7d2JsiuPFvPIPL4dJ5A9ULGpAcRRBUNpHja/po7JUr7PL31/s4N7jzazQet9pH2mNjExzjXiCYm02MDojn1wyRmfr+dv+8notUl8ThC0C7PTLnPFmq+tdpfWfWv1gsvr9RVnSlQwAlPn9QDVhpcXJ0xJCQmX+mqtobWC2+vvNIktJRo34My3ZcwN+owJTqvp7TuZNqnyrnlnWlbkx7cJconCL+0f3LFr7iXxbnqZm7gNl5HQU50VtfIFRI5vX0vRZsNw1cDaErTqlNN5q7bxL3u3Tm9bjOFw35MvurV6rgzkq2E1o/ixZ4+ZNu5eEm8H11PedlrRjmJEbd5WKwWpVzMSstEktpvDDfZsWQ1Xl1W8GLtQhkPFGu98PZOLRAaCri5kPgwEQEYHkQQ6VeLYmldxInipYoReeIeepXWoqszivCRH/Pl1E7M/0dDxRavMWrySOopxk8i19LZQmtGRoi3CRso6upnVYwb64Hb87zzzSQ+njiE9t9G4V4ljE5tq3PmvheFNaA/N4/p2xrx3to6uJh84FEBqrToRpWUv8q88SXRh2szd+Np3g6si844lnJ4PdW+YC3uhXEXscTGAS4AgtiYGHAviLsGRNR6Pho4k5hBv/LngHoUerSfRYP7M+iL0qx8N5BHy7rQbMxOEgDnxp+zY8VAzJybyoBTIV/8Cvni1344cfsbMnp+Hda8WwuhYh/l7RdEGOmzZXKkojyNe0HctJ60fGMYDYq6Ak0Z1C+EZYt28M+YBlRNXSfhIj8P6833npNYPLk5aY9IN1t7DEQs65zRNv97iYgVaj04iUu//Mi5wFeZWdbEgXgzepjPiSiuLu1Mt7HpfdTbKhuUU8o3146K8a6aPyp9c0C3AAAMN0lEQVT5opTrkWfVcknFd6BS35V9YlUdyoX52lyOZfcdMVbLVakxVvVjS5H2VrB3HkDrjY+3Lt2ffhR5mJKX6bZBMQc1vhQuFEtMJp8biH38BPfCRRz90imHQuvhTZEnN3gYB5h474wlc5zF+5KgHAMK+Z0Ubf0cLpFInn1yqkfnOmo939qZILvybD2DyOPTeQLVkxY6bz88Iu+nuw1fz8P7kRhKpnzuWxy/4j35ZNt06mcaMmIy/JV07ive//wWvX7YxcIAD3T6E3zRphcPAHDBxSUJfdpJLQMxUTEY3DGJBoG8hCV7qPlW2V+ZfaD2fVugvoapm4odN1a0xdrToepExv3eiKkTSqLl6UkLxdzS78V4W3XeRSly/yYRBiivA4gj4vZDDOUskKeI0ToKcvQHT2VxjVxAf57df7jTZHbZlAOSWoq36U7N8DVsu+zFke2+tP1fDXRkIe4yyVbAEMHtO4lQK7kcJ96+yQNPv+Srtozk6PxK4HX3X24mQiULpyDV3+jK0nv2OB59PIjBc5fxzdB6FLSg6eu8/fCIuM6dpFS5em7fuIOHny9OxCrXc40Htf4TzoL/hKN/cJIV7/Zk7KwG/N5FKeZPsTy9Tc3I2PaRS6acV9YVrInxTHqgoVCt15jxy2vJn4u7rO7XkIr161NYI3hweA9n/j3OiMarAEh68pC4hPcJe/4k4TvCaWIsX+OEk5OGJL0+5TFwxrGUs+up9QVr0ZXyp6LrMi5cTIR6zkACl87+TcEqQyiqBcON01yIacjrrzTAxwUo2oieXaqx4Kc93BwVRLlX1nL6laytnYoQem5cuUoSNYlUsU+w4vZr8MugjyBiWVdle/tVo7KPlrgML0MwUjDxEquH9eArwzv8d3YvyqabzMzXHmNdIOnsDF5X68H6k6z75QoNB3fK/LgjBT2U+8crnO6T/u+Ms59WxQaqvclsvJv4rnH+KOYLCLNrW+BbZ2WbAcr1PRUzPrGmDtlj/lLiaY7ZdgfdErlqNcaqfmwh0t4K9rYzmWd8C/YnDXe4cTMhLS8Tbl7jvmfRTFfLK+agiMC/0kM2/xuNaOj9tKSJGP69FEGFFlWy8YjD/IdTjVAaug9l05a7dOhWNNO7ptTnOCtRiAGl/FabqR15n1MikdiHnOrRuYFaz7d2JsiuPFvPILk9z0ksQ9W1ToGdaGH4lZ923sMA6K/8yE87nt7y6hTUiy5FVjNz1g5uPhGQ9IT7F3ax83jmZxGLmMfEuZWkfBkPdBh4sHcJGy+lXL3m5E9AxUv8+edtkoDEqyv5acdDM88z9sSzyEOuX4uWc0E2UPOtor9M+EDx+zbC6jUcPVY0frSdspbvVnxGmF/GEd2a3AJwCuxIC35h4fIzxIokHh6cw/e7nmRZnjmU5OhstIY9SLq2jX2JoTxf+ek4oSnajvZBx/l5wlfsKdmVdinP67c27kzJNouIZPuCeZyMNGCIOsaS+RvwaNORak6Z5TgFvUhH7/XM/nwLN+MEIuEeF46cQek9wZb8RlOsDROXh1N+dR8Gf3MCM4/bN5LbhVaua/lm4VEik5KIPD6fr9cXoFWH+jip1HP9xa1sOHyVGD04FfbFt7ALWq0WZ4X40RvZwpwMjYmcV9TV5LZZrgfouXH8D/6+E0nMw8vs+3oYs8+24o3eVdGhwafHd+zYd4B1m/eybvNu5r9WjQINxrFszUQaOoN4fIItv+7j8p1HxETf5OTP45i73YvQlsnvdMgcSzm7nlpfMIXQJ5AQH0+iXiAMicSn/D8A7k3p3C6RdXO/52KMnsenF/HNemfCujemAKArU4fqBQ+xbsUxHulBf+8gP689TsEqAWaHT6X1RNR+1v5vG2ev3uNx9B0u/D6NWWuiCAwOxMkC+1i3/erycG5I125+7Fkwn2P3E9Df+4P/LvmTks1aUEEH6K+wbkR3Po8cwJyZL1FKxBEfH48+pbxYU3ss+W7C4R/57X4LurT2NXphuLIe2eofKjZQlq0U7+rxrJwvSmvfx1vNtyo2S3aK+fqu5hNr6pCt56+s51guyFWpMVb1YwuR9jZvb7tiasa3ZH9SRLNz4RyOPUrCEHmYxfM24mmUl6BSmzQ+hDSvxfl9BzM+Ii/uIAdOVyO0qXyfgVUUbs1bI4M4MrkP01cf5mbUE+KirvPXb+GMHP8TkYHWzXGqKMSAUn4rztSOvs8peSZQnLklOUJO9WhHITv7ceozQQL7xgZQb/gGEmwhz8YziD2OX0qyj3ouuTVm5NxBjB/bls5ziuHhW5vA58twPfVz5zoM/nYuTJ7MS/UuEi0K4lspmM7vfk6o8WJBb/Jui9eZ3KYJ3iW88fIPJih1J0JbjhcnDOXAu20JW1IMn9JNaNioJFdM6aSrQofX2/D75DrUHe1Mgw/28s3LJeRwaC0qvlX0lykfvKTwfRuhqJMp8kCsuJWuS3BpEx9YkVvJgpow8qvhjH+3I40/daZEw350blOSX7W6rMkzh5IcW62R4xiI2L2d+yHvZdxJ1fjRvFMwH4/YQuUJc1PuWLE27szINodTZdq2eMzsTgEcvwNl2kxg5tv1cMbAbWM5zkEMWTSHxAkT6V7nVeKcvanYbjJzgqrjZU6+hb/RFe/Ah8uSeL93b4Y5/cTcfip6u4YwcsEkpo7rS8vZD8CrJq3Hfs+oRm6Acj0Xj0+zZvwIJl15RJK2EKWC+zFtfAhOzloz8ROO/4mMtjArQydM5LyCrqZewGE2jjPrAXpubJnM6MUnuRNfkDINX2TUssm0STkJqXX1xDftuZtJPC7kjKZAYbx9i+ACCMN9/lo6jg9H/8v9WB1elRvRfsYKRoW4YzqWcnI91Ht+JvScmdmU7rPPpjxApwdBy52oMHQLG8fVRUdhmkxYzKAxI3k1aDyxhavR+p3vUuIEKNSWMfOHMGXKf2gx4z6JLj5UCR3OzHEv4JaF9bQaPTc2fcgXUy9wJxoKlw4kdMhyRvculXyVhop9rN1+NXuDK4GjFvPupJGMbDyD+9pi1Or0CV+OqI8zkHR9LUvX/8Nd/US6V5+YIseF+h8eYfnAslbVHvXvxrJ/1VriX5hFqEfGLqimhzZbtV3ZBsq9STneUYtntd8rra3iW1WbgUJ9V/eJNXXI6tlIkWzmmN3lKtUYK/uxhUh7K9R0e2Jyxrdgf9KpMmGt4pnbuVpKXn5glJcpKNYmLSU79aXWf1eyO7INbTw0gCBq50oO1ejDqLJ55VG1joITFfou438+n/HF/AF0fu8W8QWLUzGwHb2G98XTrZh1c5zqcgoxoJTfSjN1HtjnlOR11GZuie3JqV7qKGRzP07tc/GY27cTqdEs9WKibMqz8Qxi23lOklNoEhISBICLiwsXb0Tmtj6SHMCvoCAiRo5M9ib37R7F+kF1WBG8l+9fyyuN0/aY9IO4x+r+LTjY9wAzWth4R9tWsnNSx7yGo9jC3no4ynZLJBLHQdYFy8mmrXJ/jpOAjf2g38uUpmMpsmgnb1fP7pmseE591p4Zheez5I0q6JIus+TlAdwbu5F3gsy8UTqf4xA5ZdMYkJjCIfwsSUP6w/HINz6J28z4rpsIWzmTxgVzT418Y+9nFNmpJZJnBgO3D28nolxTavrBvT2fsXhfZdqOLp5vT1iYxfAYr8bjeeW5HDjgYyvZOaljXsNRbGFvPRxluyUSieMg64LlSFtJcpQC1Hx3K8tS/9RV5NUfd+SmQhKJRCKROA6urZm6sXVuayHJ48iTFpIcx3DtO4b1+ozTxrfvOgXy5orv6VVGHlK3DYIn55cy5vWB3I03oPOqTfsp8+grb3HLjK48zV8v79iyc1LHvIaj2MLeejjKdkskEsfBBnUhp+Yyh5PrIDXU4eySS3IlEolEIpFIJBJrkI+HygfI26FyB2l3x0D6QSKRSCQSibXI+cExkH54dpC+zB9IPzsW0h+Oh/SJfZH2ztskvzUMCA0NZcOGDSQmJuayShKJRCKRSCQSiUQikUgkEolEIpFI8iNOCQkJAIwfPx53d/dcVkeSE0RGRuLh4ZHbauQ7pN0dA+kHiUQikUgk1iLnB8dA+uHZQfoyfyD97FhIfzge0if2Rdo7b5P2UNLw8PDc1EMikUgkEolEIpFIJBKJRCKRSCQSST5HvklNIpFIJBKJRCKRSCQSiUQikUgkEolD8H95liIT38LIPAAAAABJRU5ErkJggg==;" vertex="1" parent="1">
          <mxGeometry x="-175" y="1212" width="1581" height="86" as="geometry" />
        </mxCell>
      </root>
    </mxGraphModel>
  </diagram>
  <diagram id="uoMQFT6hCLZS2Y_Mxklq" name="Вариант с партициями">
    <mxGraphModel dx="2371" dy="1604" grid="0" gridSize="10" guides="1" tooltips="1" connect="1" arrows="1" fold="1" page="0" pageScale="1" pageWidth="850" pageHeight="1100" math="0" shadow="0">
      <root>
        <mxCell id="0" />
        <mxCell id="1" parent="0" />
        <mxCell id="IW1V0rBDeDKIw06Z6xzi-1" value="&lt;div style=&quot;background-color: rgb(247, 247, 247); font-family: monospace, &amp;quot;Droid Sans Mono&amp;quot;, &amp;quot;monospace&amp;quot;, monospace; font-size: 14px; line-height: 19px;&quot;&gt;&lt;div style=&quot;line-height: 19px;&quot;&gt;&lt;div&gt;CREATE TABLE data_mart_with_partition (&lt;/div&gt;&lt;div&gt;&lt;span style=&quot;color: #a31515;&quot;&gt;&amp;nbsp; &amp;nbsp; &amp;nbsp;timeseries DateTime,&lt;/span&gt;&lt;/div&gt;&lt;div&gt;&amp;nbsp; &amp;nbsp; &amp;nbsp;&lt;span style=&quot;color: #a31515;&quot;&gt;Date Date,&lt;/span&gt;&lt;/div&gt;&lt;div&gt;&amp;nbsp; &amp;nbsp; &amp;nbsp;&lt;span style=&quot;color: #a31515;&quot;&gt;City String,&lt;/span&gt;&lt;/div&gt;&lt;div&gt;&amp;nbsp; &amp;nbsp; &amp;nbsp;&lt;span style=&quot;color: #a31515;&quot;&gt;Client String,&lt;/span&gt;&lt;/div&gt;&lt;div&gt;&amp;nbsp; &amp;nbsp; &amp;nbsp;&lt;span style=&quot;color: #a31515;&quot;&gt;Product String,&lt;/span&gt;&lt;/div&gt;&lt;div&gt;&amp;nbsp; &amp;nbsp; &amp;nbsp;&lt;span style=&quot;color: #a31515;&quot;&gt;metric_1 Float64,&lt;/span&gt;&lt;/div&gt;&lt;div&gt;&amp;nbsp; &amp;nbsp; &amp;nbsp;&lt;span style=&quot;color: #a31515;&quot;&gt;metric_2 Float64,&lt;/span&gt;&lt;/div&gt;&lt;div&gt;&amp;nbsp; &amp;nbsp; &amp;nbsp;&lt;span style=&quot;color: #a31515;&quot;&gt;metric_3 Float64,&lt;/span&gt;&lt;/div&gt;&lt;div&gt;&amp;nbsp; &amp;nbsp; &amp;nbsp;&lt;span style=&quot;color: #a31515;&quot;&gt;metric_4 Float64&lt;/span&gt;&lt;/div&gt;&lt;div&gt;&lt;span style=&quot;color: #a31515;&quot;&gt;)&lt;/span&gt;&lt;/div&gt;&lt;div&gt;&lt;span style=&quot;color: #a31515;&quot;&gt;ENGINE = MergeTree&lt;/span&gt;&lt;/div&gt;&lt;div&gt;&lt;span style=&quot;color: #a31515;&quot;&gt;PARTITION BY toYYYYMM(Date)&lt;/span&gt;&lt;/div&gt;&lt;div&gt;&lt;span style=&quot;color: #a31515;&quot;&gt;ORDER BY (Date, City, Client, Product)&lt;/span&gt;&lt;/div&gt;&lt;div&gt;&lt;span style=&quot;color: #a31515;&quot;&gt;;&lt;/span&gt;&lt;/div&gt;&lt;/div&gt;&lt;/div&gt;" style="text;html=1;align=left;verticalAlign=middle;whiteSpace=wrap;rounded=0;spacingLeft=13;strokeColor=#CCCCCC;" vertex="1" parent="1">
          <mxGeometry x="-394" y="-143" width="379" height="293" as="geometry" />
        </mxCell>
        <mxCell id="IW1V0rBDeDKIw06Z6xzi-3" value="&lt;span style=&quot;font-weight: normal;&quot;&gt;одна из нескольких&lt;/span&gt;&amp;nbsp;&lt;br&gt;parts&amp;nbsp;&lt;span style=&quot;font-weight: normal;&quot;&gt;таблицы &lt;/span&gt;&lt;br&gt;&lt;span style=&quot;font-weight: normal;&quot;&gt;с партицией&amp;nbsp;&lt;/span&gt;&lt;font style=&quot;font-size: 21px;&quot;&gt;toYYYYMM(Date)&lt;/font&gt;&lt;br&gt;&lt;span style=&quot;font-weight: normal;&quot;&gt;с &lt;/span&gt;part_type = &#39;&lt;font color=&quot;#ff0000&quot;&gt;Wide&lt;/font&gt;&#39;&lt;br&gt;&lt;span style=&quot;font-weight: normal;&quot;&gt;(частей может быть много)&lt;/span&gt;" style="text;html=1;align=center;verticalAlign=middle;whiteSpace=wrap;rounded=0;fontSize=21;fontStyle=1" vertex="1" parent="1">
          <mxGeometry x="493" y="213" width="353" height="126" as="geometry" />
        </mxCell>
        <mxCell id="IW1V0rBDeDKIw06Z6xzi-4" value="&amp;nbsp; / var / lib / clickhouse / data / default / &lt;font color=&quot;#ff8000&quot;&gt;data_mart_with_partition&lt;/font&gt;" style="rounded=0;whiteSpace=wrap;html=1;align=left;verticalAlign=top;fontStyle=1;fontSize=19;shadow=0;dashed=1;dashPattern=1 1;" vertex="1" parent="1">
          <mxGeometry x="-394" y="165" width="840" height="902" as="geometry" />
        </mxCell>
        <mxCell id="IW1V0rBDeDKIw06Z6xzi-5" value="&lt;b&gt;&lt;font style=&quot;font-size: 15px;&quot;&gt;&amp;nbsp; &amp;nbsp;&lt;/font&gt;&lt;/b&gt;&lt;b&gt;&lt;font style=&quot;font-size: 15px;&quot;&gt;202401_1_12_1&lt;/font&gt;&lt;/b&gt;" style="rounded=0;whiteSpace=wrap;html=1;fillColor=#fff2cc;strokeColor=#d6b656;verticalAlign=top;align=left;" vertex="1" parent="1">
          <mxGeometry x="-383" y="213" width="811" height="404" as="geometry" />
        </mxCell>
        <mxCell id="IW1V0rBDeDKIw06Z6xzi-6" value="detached" style="rounded=0;whiteSpace=wrap;html=1;fillColor=#647687;strokeColor=#314354;fontColor=#ffffff;" vertex="1" parent="1">
          <mxGeometry x="-365.5" y="958" width="122" height="32" as="geometry" />
        </mxCell>
        <mxCell id="IW1V0rBDeDKIw06Z6xzi-7" value="format_version.txt" style="rounded=0;whiteSpace=wrap;html=1;fillColor=#dae8fc;strokeColor=#6c8ebf;" vertex="1" parent="1">
          <mxGeometry x="-365.5" y="1001" width="122" height="32" as="geometry" />
        </mxCell>
        <mxCell id="IW1V0rBDeDKIw06Z6xzi-8" value="City.bin" style="rounded=0;whiteSpace=wrap;html=1;fillColor=#d5e8d4;strokeColor=#82b366;" vertex="1" parent="1">
          <mxGeometry x="-237" y="258" width="123" height="32" as="geometry" />
        </mxCell>
        <mxCell id="IW1V0rBDeDKIw06Z6xzi-9" value="City.cmrk2" style="rounded=0;whiteSpace=wrap;html=1;fillColor=#e1d5e7;strokeColor=#9673a6;" vertex="1" parent="1">
          <mxGeometry x="-237" y="295" width="123" height="32" as="geometry" />
        </mxCell>
        <mxCell id="IW1V0rBDeDKIw06Z6xzi-10" value="Client.bin" style="rounded=0;whiteSpace=wrap;html=1;fillColor=#d5e8d4;strokeColor=#82b366;" vertex="1" parent="1">
          <mxGeometry x="-105" y="258" width="123" height="32" as="geometry" />
        </mxCell>
        <mxCell id="IW1V0rBDeDKIw06Z6xzi-11" value="Client.cmrk2" style="rounded=0;whiteSpace=wrap;html=1;fillColor=#e1d5e7;strokeColor=#9673a6;" vertex="1" parent="1">
          <mxGeometry x="-105" y="295" width="123" height="32" as="geometry" />
        </mxCell>
        <mxCell id="IW1V0rBDeDKIw06Z6xzi-12" value="Date.bin" style="rounded=0;whiteSpace=wrap;html=1;fillColor=#d5e8d4;strokeColor=#82b366;" vertex="1" parent="1">
          <mxGeometry x="27" y="258" width="123" height="32" as="geometry" />
        </mxCell>
        <mxCell id="IW1V0rBDeDKIw06Z6xzi-13" value="Date.cmrk2" style="rounded=0;whiteSpace=wrap;html=1;fillColor=#e1d5e7;strokeColor=#9673a6;" vertex="1" parent="1">
          <mxGeometry x="27" y="295" width="123" height="32" as="geometry" />
        </mxCell>
        <mxCell id="IW1V0rBDeDKIw06Z6xzi-14" value="Product.bin" style="rounded=0;whiteSpace=wrap;html=1;fillColor=#d5e8d4;strokeColor=#82b366;" vertex="1" parent="1">
          <mxGeometry x="159" y="258" width="123" height="32" as="geometry" />
        </mxCell>
        <mxCell id="IW1V0rBDeDKIw06Z6xzi-15" value="Product.cmrk2" style="rounded=0;whiteSpace=wrap;html=1;fillColor=#e1d5e7;strokeColor=#9673a6;" vertex="1" parent="1">
          <mxGeometry x="159" y="295" width="123" height="32" as="geometry" />
        </mxCell>
        <mxCell id="IW1V0rBDeDKIw06Z6xzi-16" value="timeseries.bin" style="rounded=0;whiteSpace=wrap;html=1;fillColor=#d5e8d4;strokeColor=#82b366;" vertex="1" parent="1">
          <mxGeometry x="291" y="258" width="123" height="32" as="geometry" />
        </mxCell>
        <mxCell id="IW1V0rBDeDKIw06Z6xzi-17" value="timeseries.cmrk2" style="rounded=0;whiteSpace=wrap;html=1;fillColor=#e1d5e7;strokeColor=#9673a6;" vertex="1" parent="1">
          <mxGeometry x="291" y="295" width="123" height="32" as="geometry" />
        </mxCell>
        <mxCell id="IW1V0rBDeDKIw06Z6xzi-18" value="primary.cidx" style="rounded=0;whiteSpace=wrap;html=1;fillColor=#f0a30a;fontColor=#000000;strokeColor=#BD7000;" vertex="1" parent="1">
          <mxGeometry x="-369" y="258" width="123" height="32" as="geometry" />
        </mxCell>
        <mxCell id="IW1V0rBDeDKIw06Z6xzi-19" value="serialization.json" style="rounded=0;whiteSpace=wrap;html=1;align=center;fillColor=#b1ddf0;strokeColor=#10739e;" vertex="1" parent="1">
          <mxGeometry x="-369" y="440" width="123" height="32" as="geometry" />
        </mxCell>
        <mxCell id="IW1V0rBDeDKIw06Z6xzi-20" value="metric_1.bin" style="rounded=0;whiteSpace=wrap;html=1;fillColor=#d5e8d4;strokeColor=#82b366;" vertex="1" parent="1">
          <mxGeometry x="-237" y="351" width="123" height="32" as="geometry" />
        </mxCell>
        <mxCell id="IW1V0rBDeDKIw06Z6xzi-21" value="metric_1.cmrk2" style="rounded=0;whiteSpace=wrap;html=1;fillColor=#e1d5e7;strokeColor=#9673a6;" vertex="1" parent="1">
          <mxGeometry x="-237" y="388" width="123" height="32" as="geometry" />
        </mxCell>
        <mxCell id="IW1V0rBDeDKIw06Z6xzi-22" value="metric_2.bin" style="rounded=0;whiteSpace=wrap;html=1;fillColor=#d5e8d4;strokeColor=#82b366;" vertex="1" parent="1">
          <mxGeometry x="-105" y="351" width="123" height="32" as="geometry" />
        </mxCell>
        <mxCell id="IW1V0rBDeDKIw06Z6xzi-23" value="metric_2.cmrk2" style="rounded=0;whiteSpace=wrap;html=1;fillColor=#e1d5e7;strokeColor=#9673a6;" vertex="1" parent="1">
          <mxGeometry x="-105" y="388" width="123" height="32" as="geometry" />
        </mxCell>
        <mxCell id="IW1V0rBDeDKIw06Z6xzi-24" value="metric_3.bin" style="rounded=0;whiteSpace=wrap;html=1;fillColor=#d5e8d4;strokeColor=#82b366;" vertex="1" parent="1">
          <mxGeometry x="27" y="351" width="123" height="32" as="geometry" />
        </mxCell>
        <mxCell id="IW1V0rBDeDKIw06Z6xzi-25" value="metric_3.cmrk2" style="rounded=0;whiteSpace=wrap;html=1;fillColor=#e1d5e7;strokeColor=#9673a6;" vertex="1" parent="1">
          <mxGeometry x="27" y="388" width="123" height="32" as="geometry" />
        </mxCell>
        <mxCell id="IW1V0rBDeDKIw06Z6xzi-26" value="metric_4.bin" style="rounded=0;whiteSpace=wrap;html=1;fillColor=#d5e8d4;strokeColor=#82b366;" vertex="1" parent="1">
          <mxGeometry x="159" y="351" width="123" height="32" as="geometry" />
        </mxCell>
        <mxCell id="IW1V0rBDeDKIw06Z6xzi-27" value="metric_4.cmrk2" style="rounded=0;whiteSpace=wrap;html=1;fillColor=#e1d5e7;strokeColor=#9673a6;" vertex="1" parent="1">
          <mxGeometry x="159" y="388" width="123" height="32" as="geometry" />
        </mxCell>
        <mxCell id="IW1V0rBDeDKIw06Z6xzi-28" value="metadata_version.txt" style="rounded=0;whiteSpace=wrap;html=1;align=center;fillColor=#b1ddf0;strokeColor=#10739e;" vertex="1" parent="1">
          <mxGeometry x="-237" y="440" width="154" height="32" as="geometry" />
        </mxCell>
        <mxCell id="IW1V0rBDeDKIw06Z6xzi-29" value="default_compression_codec.txt" style="rounded=0;whiteSpace=wrap;html=1;align=center;fillColor=#b1ddf0;strokeColor=#10739e;" vertex="1" parent="1">
          <mxGeometry x="-70" y="440" width="192" height="32" as="geometry" />
        </mxCell>
        <mxCell id="IW1V0rBDeDKIw06Z6xzi-30" value="checksums.txt" style="rounded=0;whiteSpace=wrap;html=1;fillColor=#b1ddf0;strokeColor=#10739e;" vertex="1" parent="1">
          <mxGeometry x="-369" y="485" width="122" height="32" as="geometry" />
        </mxCell>
        <mxCell id="IW1V0rBDeDKIw06Z6xzi-31" value="columns.txt" style="rounded=0;whiteSpace=wrap;html=1;fillColor=#b1ddf0;strokeColor=#10739e;" vertex="1" parent="1">
          <mxGeometry x="-369" y="527" width="122" height="32" as="geometry" />
        </mxCell>
        <UserObject label="count.txt" id="IW1V0rBDeDKIw06Z6xzi-32">
          <mxCell style="rounded=0;whiteSpace=wrap;html=1;fillColor=#b1ddf0;strokeColor=#10739e;" vertex="1" parent="1">
            <mxGeometry x="-369" y="569" width="122" height="32" as="geometry" />
          </mxCell>
        </UserObject>
        <mxCell id="IW1V0rBDeDKIw06Z6xzi-33" style="rounded=0;orthogonalLoop=1;jettySize=auto;html=1;fillColor=#ffe6cc;strokeColor=#d79b00;strokeWidth=2;dashed=1;dashPattern=1 1;" edge="1" parent="1" source="IW1V0rBDeDKIw06Z6xzi-3" target="IW1V0rBDeDKIw06Z6xzi-5">
          <mxGeometry relative="1" as="geometry" />
        </mxCell>
        <mxCell id="IW1V0rBDeDKIw06Z6xzi-34" value="одна из нескольких&amp;nbsp;&lt;br style=&quot;border-color: var(--border-color);&quot;&gt;parts&amp;nbsp;&lt;span style=&quot;border-color: var(--border-color); font-weight: normal;&quot;&gt;таблицы&lt;/span&gt;&lt;br style=&quot;border-color: var(--border-color);&quot;&gt;&lt;span style=&quot;font-weight: normal;&quot;&gt;с партицией&lt;/span&gt;&amp;nbsp;&lt;font style=&quot;border-color: var(--border-color);&quot;&gt;toYYYYMM(Date)&lt;/font&gt;&lt;br style=&quot;border-color: var(--border-color);&quot;&gt;&lt;span style=&quot;border-color: var(--border-color); font-weight: normal;&quot;&gt;&lt;/span&gt;part_type = &#39;&lt;font color=&quot;#ff0000&quot;&gt;Compact&lt;/font&gt;&#39;&lt;br style=&quot;border-color: var(--border-color);&quot;&gt;&lt;span style=&quot;border-color: var(--border-color); font-weight: normal;&quot;&gt;(частей может быть много)&lt;/span&gt;" style="text;html=1;align=center;verticalAlign=middle;whiteSpace=wrap;rounded=0;fontSize=21;fontStyle=1" vertex="1" parent="1">
          <mxGeometry x="493" y="631" width="336" height="128" as="geometry" />
        </mxCell>
        <mxCell id="IW1V0rBDeDKIw06Z6xzi-35" value="&lt;b&gt;&lt;font style=&quot;font-size: 15px;&quot;&gt;&amp;nbsp; &amp;nbsp;&lt;/font&gt;&lt;/b&gt;&lt;b&gt;&lt;font style=&quot;font-size: 15px;&quot;&gt;202402_14_14_0&lt;/font&gt;&lt;/b&gt;" style="rounded=0;whiteSpace=wrap;html=1;fillColor=#ffe6cc;strokeColor=#d79b00;verticalAlign=top;align=left;" vertex="1" parent="1">
          <mxGeometry x="-380" y="637" width="523" height="301" as="geometry" />
        </mxCell>
        <mxCell id="IW1V0rBDeDKIw06Z6xzi-36" value="data.bin" style="rounded=0;whiteSpace=wrap;html=1;fillColor=#d5e8d4;strokeColor=#82b366;" vertex="1" parent="1">
          <mxGeometry x="-234" y="682" width="123" height="32" as="geometry" />
        </mxCell>
        <mxCell id="IW1V0rBDeDKIw06Z6xzi-37" value="data.cmrk3" style="rounded=0;whiteSpace=wrap;html=1;fillColor=#e1d5e7;strokeColor=#9673a6;" vertex="1" parent="1">
          <mxGeometry x="-234" y="719" width="123" height="32" as="geometry" />
        </mxCell>
        <mxCell id="IW1V0rBDeDKIw06Z6xzi-38" value="primary.cidx" style="rounded=0;whiteSpace=wrap;html=1;fillColor=#f0a30a;fontColor=#000000;strokeColor=#BD7000;" vertex="1" parent="1">
          <mxGeometry x="-366" y="682" width="123" height="32" as="geometry" />
        </mxCell>
        <mxCell id="IW1V0rBDeDKIw06Z6xzi-39" value="serialization.json" style="rounded=0;whiteSpace=wrap;html=1;align=center;fillColor=#b1ddf0;strokeColor=#10739e;" vertex="1" parent="1">
          <mxGeometry x="-366" y="765" width="121" height="32" as="geometry" />
        </mxCell>
        <mxCell id="IW1V0rBDeDKIw06Z6xzi-40" value="metadata_version.txt" style="rounded=0;whiteSpace=wrap;html=1;align=center;fillColor=#b1ddf0;strokeColor=#10739e;" vertex="1" parent="1">
          <mxGeometry x="-234" y="765" width="154" height="32" as="geometry" />
        </mxCell>
        <mxCell id="IW1V0rBDeDKIw06Z6xzi-41" value="default_compression_codec.txt" style="rounded=0;whiteSpace=wrap;html=1;align=center;fillColor=#b1ddf0;strokeColor=#10739e;" vertex="1" parent="1">
          <mxGeometry x="-67" y="765" width="192" height="32" as="geometry" />
        </mxCell>
        <mxCell id="IW1V0rBDeDKIw06Z6xzi-42" value="checksums.txt" style="rounded=0;whiteSpace=wrap;html=1;fillColor=#b1ddf0;strokeColor=#10739e;" vertex="1" parent="1">
          <mxGeometry x="-366" y="809" width="122" height="32" as="geometry" />
        </mxCell>
        <mxCell id="IW1V0rBDeDKIw06Z6xzi-43" value="columns.txt" style="rounded=0;whiteSpace=wrap;html=1;fillColor=#b1ddf0;strokeColor=#10739e;" vertex="1" parent="1">
          <mxGeometry x="-366" y="851" width="122" height="32" as="geometry" />
        </mxCell>
        <UserObject label="count.txt" id="IW1V0rBDeDKIw06Z6xzi-44">
          <mxCell style="rounded=0;whiteSpace=wrap;html=1;fillColor=#b1ddf0;strokeColor=#10739e;" vertex="1" parent="1">
            <mxGeometry x="-366" y="893" width="122" height="32" as="geometry" />
          </mxCell>
        </UserObject>
        <mxCell id="IW1V0rBDeDKIw06Z6xzi-45" style="rounded=0;orthogonalLoop=1;jettySize=auto;html=1;fillColor=#ffe6cc;strokeColor=#d79b00;strokeWidth=2;dashed=1;dashPattern=1 1;" edge="1" parent="1" source="IW1V0rBDeDKIw06Z6xzi-34" target="IW1V0rBDeDKIw06Z6xzi-35">
          <mxGeometry relative="1" as="geometry" />
        </mxCell>
        <mxCell id="IW1V0rBDeDKIw06Z6xzi-46" style="rounded=0;orthogonalLoop=1;jettySize=auto;html=1;entryX=0.5;entryY=0;entryDx=0;entryDy=0;dashed=1;dashPattern=1 1;" edge="1" parent="1" source="IW1V0rBDeDKIw06Z6xzi-47" target="IW1V0rBDeDKIw06Z6xzi-4">
          <mxGeometry relative="1" as="geometry" />
        </mxCell>
        <mxCell id="IW1V0rBDeDKIw06Z6xzi-47" value="&lt;span style=&quot;font-weight: 400;&quot;&gt;Директория с parts * таблицы&amp;nbsp;&lt;/span&gt;&lt;font color=&quot;#ff8000&quot;&gt;data_mart_with_partition&lt;/font&gt;" style="text;html=1;align=center;verticalAlign=middle;whiteSpace=wrap;rounded=0;fontSize=21;fontStyle=1" vertex="1" parent="1">
          <mxGeometry x="6" y="68" width="385" height="57" as="geometry" />
        </mxCell>
        <mxCell id="IW1V0rBDeDKIw06Z6xzi-48" value="&lt;font style=&quot;font-size: 25px;&quot;&gt;Пример таблицы с партициями&lt;/font&gt;" style="text;html=1;align=left;verticalAlign=middle;whiteSpace=wrap;rounded=0;fontStyle=1;fontSize=21;" vertex="1" parent="1">
          <mxGeometry x="-394" y="-185" width="428" height="30" as="geometry" />
        </mxCell>
        <mxCell id="IW1V0rBDeDKIw06Z6xzi-51" value="partition.dat" style="rounded=0;whiteSpace=wrap;html=1;fillColor=#008a00;strokeColor=#005700;fontColor=#ffffff;fontStyle=1" vertex="1" parent="1">
          <mxGeometry x="295" y="488" width="123" height="32" as="geometry" />
        </mxCell>
        <mxCell id="IW1V0rBDeDKIw06Z6xzi-52" value="minmax_Date.idx" style="rounded=0;whiteSpace=wrap;html=1;fillColor=#008a00;strokeColor=#005700;fontColor=#ffffff;fontStyle=1" vertex="1" parent="1">
          <mxGeometry x="295" y="530" width="123" height="32" as="geometry" />
        </mxCell>
        <mxCell id="IW1V0rBDeDKIw06Z6xzi-53" value="partition.dat" style="rounded=0;whiteSpace=wrap;html=1;fillColor=#008a00;strokeColor=#005700;fontColor=#ffffff;fontStyle=1" vertex="1" parent="1">
          <mxGeometry x="2" y="856" width="123" height="32" as="geometry" />
        </mxCell>
        <mxCell id="IW1V0rBDeDKIw06Z6xzi-54" value="minmax_Date.idx" style="rounded=0;whiteSpace=wrap;html=1;fillColor=#008a00;strokeColor=#005700;fontColor=#ffffff;fontStyle=1" vertex="1" parent="1">
          <mxGeometry x="2" y="898" width="123" height="32" as="geometry" />
        </mxCell>
      </root>
    </mxGraphModel>
  </diagram>
</mxfile>
